<svg width="128" height="34" viewBox="0 0 128 34" fill="none" xmlns="http://www.w3.org/2000/svg">
<path d="M6.33275 13.86C7.22075 13.86 8.05175 13.71 8.82575 13.41C9.59975 13.11 10.2238 12.66 10.6978 12.06C11.1778 11.46 11.4178 10.713 11.4178 9.81899C11.4178 9.17699 11.2978 8.64599 11.0578 8.22599C10.8238 7.79999 10.5208 7.45799 10.1488 7.19999C9.78275 6.94199 9.40175 6.74099 9.00575 6.59699C8.61575 6.45299 8.26175 6.33898 7.94375 6.25498L5.62175 5.60699C5.33375 5.52899 5.04575 5.43299 4.75775 5.31899C4.46975 5.19899 4.22975 5.03999 4.03775 4.84199C3.84575 4.63799 3.74975 4.37699 3.74975 4.05899C3.74975 3.72299 3.86075 3.42899 4.08275 3.17699C4.31075 2.92499 4.60775 2.72999 4.97375 2.59199C5.34575 2.45399 5.74775 2.39099 6.17975 2.40299C6.84575 2.42099 7.44575 2.61599 7.97975 2.98798C8.51375 3.35999 8.84975 3.88799 8.98775 4.57199L11.3188 4.16699C11.0308 2.96698 10.4398 2.03998 9.54575 1.38599C8.65175 0.725985 7.53875 0.389985 6.20675 0.377985C5.33075 0.371985 4.53275 0.512985 3.81275 0.800985C3.09875 1.08298 2.52875 1.50598 2.10275 2.06998C1.68275 2.63398 1.47275 3.33298 1.47275 4.16699C1.47275 4.73699 1.56575 5.21699 1.75175 5.60699C1.94375 5.99099 2.18675 6.30599 2.48075 6.55199C2.78075 6.79799 3.09575 6.99299 3.42575 7.13699C3.76175 7.28099 4.07375 7.39499 4.36175 7.47899L7.70975 8.46899C8.66975 8.75699 9.14975 9.25499 9.14975 9.96299C9.14975 10.359 9.02075 10.698 8.76275 10.98C8.51075 11.256 8.18075 11.466 7.77275 11.61C7.36475 11.754 6.92975 11.826 6.46775 11.826C5.68775 11.826 4.99775 11.616 4.39775 11.196C3.80375 10.776 3.41075 10.182 3.21875 9.41399L0.96875 9.75599C1.10675 10.602 1.41875 11.334 1.90475 11.952C2.39675 12.564 3.02075 13.035 3.77675 13.365C4.53875 13.695 5.39075 13.86 6.33275 13.86Z" fill="url(#paint0_linear_202:2328)"/>
<path d="M17.6588 13.86C18.6308 13.86 19.4798 13.644 20.2058 13.212C20.9318 12.774 21.4958 12.171 21.8978 11.403C22.3058 10.629 22.5098 9.73799 22.5098 8.72999C22.5098 7.72799 22.3088 6.84299 21.9068 6.07499C21.5048 5.30099 20.9408 4.69499 20.2148 4.25698C19.4888 3.81899 18.6368 3.59999 17.6588 3.59999C16.7048 3.59999 15.8648 3.81599 15.1388 4.24798C14.4128 4.67999 13.8458 5.27999 13.4378 6.04799C13.0298 6.81599 12.8258 7.70999 12.8258 8.72999C12.8258 9.73199 13.0238 10.62 13.4198 11.394C13.8218 12.162 14.3858 12.765 15.1118 13.203C15.8378 13.641 16.6868 13.86 17.6588 13.86ZM17.6588 11.826C16.8248 11.826 16.1918 11.547 15.7598 10.989C15.3338 10.425 15.1208 9.67199 15.1208 8.72999C15.1208 7.81199 15.3248 7.06799 15.7328 6.49799C16.1468 5.92199 16.7888 5.63399 17.6588 5.63399C18.5108 5.63399 19.1498 5.91598 19.5758 6.47999C20.0018 7.03799 20.2148 7.78799 20.2148 8.72999C20.2148 9.64199 20.0018 10.386 19.5758 10.962C19.1558 11.538 18.5168 11.826 17.6588 11.826Z" fill="url(#paint1_linear_202:2328)"/>
<path d="M24.4748 13.59H26.6708V8.59499C26.6708 7.80899 26.7818 7.20299 27.0038 6.77699C27.2318 6.34499 27.5198 6.04799 27.8678 5.88599C28.2218 5.71799 28.5818 5.63399 28.9478 5.63399C29.4638 5.63399 29.8748 5.74799 30.1808 5.97599C30.4868 6.19799 30.7118 6.48299 30.8558 6.83099C31.0058 7.17299 31.1018 7.52999 31.1438 7.90199C31.1918 8.27399 31.2158 8.60999 31.2158 8.90999V13.59H33.4118V8.16299C33.4118 7.93499 33.3908 7.63199 33.3488 7.25399C33.3128 6.87599 33.2288 6.47699 33.0968 6.05699C32.9648 5.63699 32.7608 5.24099 32.4848 4.86899C32.2088 4.49099 31.8338 4.18498 31.3598 3.95098C30.8918 3.71098 30.3008 3.59099 29.5868 3.59099C28.8848 3.59099 28.2668 3.71398 27.7328 3.95999C27.2048 4.19998 26.7638 4.52999 26.4098 4.94999V3.86999H24.4748V13.59Z" fill="url(#paint2_linear_202:2328)"/>
<path d="M35.9404 2.39399H38.1094V0.404985H35.9404V2.39399ZM35.9404 13.59H38.1094V3.86999H35.9404V13.59Z" fill="url(#paint3_linear_202:2328)"/>
<path d="M43.5233 13.86C44.2973 13.86 44.9543 13.734 45.4943 13.482C46.0403 13.224 46.5203 12.825 46.9343 12.285V13.59H48.8333V7.62299C48.8333 7.20299 48.8153 6.81599 48.7793 6.46199C48.7433 6.10199 48.6383 5.75099 48.4643 5.40899C48.1463 4.76699 47.6573 4.30499 46.9973 4.02298C46.3433 3.74099 45.5843 3.59999 44.7203 3.59999C43.5803 3.59999 42.6713 3.84899 41.9933 4.34699C41.3153 4.84499 40.8563 5.50499 40.6163 6.32699L42.5963 6.94799C42.7583 6.44999 43.0433 6.09899 43.4513 5.89499C43.8593 5.69099 44.2823 5.58899 44.7203 5.58899C45.3803 5.58899 45.8663 5.72399 46.1783 5.99399C46.4903 6.25799 46.6673 6.66899 46.7093 7.22699C45.8573 7.35299 45.0653 7.47599 44.3333 7.59599C43.6073 7.70999 42.9893 7.85099 42.4793 8.01899C41.7113 8.28299 41.1503 8.65799 40.7963 9.14399C40.4423 9.62399 40.2653 10.218 40.2653 10.926C40.2653 11.46 40.3883 11.949 40.6343 12.393C40.8863 12.837 41.2553 13.194 41.7413 13.464C42.2273 13.728 42.8213 13.86 43.5233 13.86ZM43.9553 12.132C43.4453 12.132 43.0553 12.015 42.7853 11.781C42.5213 11.547 42.3893 11.253 42.3893 10.899C42.3893 10.581 42.4913 10.323 42.6953 10.125C42.9053 9.92699 43.1963 9.75899 43.5683 9.62099C43.9103 9.50699 44.3213 9.40799 44.8013 9.32399C45.2813 9.23399 45.9083 9.12899 46.6823 9.00899C46.6763 9.23699 46.6613 9.49199 46.6373 9.77399C46.6133 10.05 46.5563 10.299 46.4663 10.521C46.3943 10.743 46.2533 10.98 46.0433 11.232C45.8393 11.484 45.5633 11.697 45.2153 11.871C44.8673 12.045 44.4473 12.132 43.9553 12.132Z" fill="url(#paint4_linear_202:2328)"/>
<path d="M60.1259 13.86C61.3799 13.86 62.4569 13.59 63.3569 13.05C64.2569 12.504 64.9469 11.757 65.4269 10.809C65.9129 9.86099 66.1559 8.77499 66.1559 7.55099C66.1559 7.51499 66.1529 7.40399 66.1469 7.21799C66.1409 7.03199 66.1319 6.89099 66.1199 6.79499H61.5299V8.49599H63.8159C63.6479 9.61199 63.2579 10.449 62.6459 11.007C62.0339 11.559 61.2389 11.829 60.2609 11.817C58.9589 11.799 57.9809 11.364 57.3269 10.512C56.6729 9.65999 56.3489 8.52599 56.3549 7.10999C56.3609 6.16199 56.5079 5.33399 56.7959 4.62599C57.0839 3.91798 57.5159 3.36899 58.0919 2.97899C58.6679 2.58899 59.3909 2.39998 60.2609 2.41198C61.1189 2.41798 61.8269 2.64899 62.3849 3.10498C62.9489 3.56098 63.3539 4.17299 63.5999 4.94099L65.8139 4.58999C65.4839 3.25799 64.8509 2.21999 63.9149 1.47598C62.9849 0.731985 61.7219 0.359985 60.1259 0.359985C58.9739 0.359985 57.9389 0.626985 57.0209 1.16099C56.1089 1.69499 55.3859 2.46599 54.8519 3.47398C54.3239 4.48199 54.0599 5.69399 54.0599 7.10999C54.0599 8.54999 54.3299 9.77399 54.8699 10.782C55.4159 11.784 56.1479 12.549 57.0659 13.077C57.9839 13.599 59.0039 13.86 60.1259 13.86Z" fill="url(#paint5_linear_202:2328)"/>
<path d="M70.6815 13.86C71.4555 13.86 72.1125 13.734 72.6525 13.482C73.1985 13.224 73.6785 12.825 74.0925 12.285V13.59H75.9915V7.62299C75.9915 7.20299 75.9735 6.81599 75.9375 6.46199C75.9015 6.10199 75.7965 5.75099 75.6225 5.40899C75.3045 4.76699 74.8155 4.30499 74.1555 4.02298C73.5015 3.74099 72.7425 3.59999 71.8785 3.59999C70.7385 3.59999 69.8295 3.84899 69.1515 4.34699C68.4735 4.84499 68.0145 5.50499 67.7745 6.32699L69.7545 6.94799C69.9165 6.44999 70.2015 6.09899 70.6095 5.89499C71.0175 5.69099 71.4405 5.58899 71.8785 5.58899C72.5385 5.58899 73.0245 5.72399 73.3365 5.99399C73.6485 6.25799 73.8255 6.66899 73.8675 7.22699C73.0155 7.35299 72.2235 7.47599 71.4915 7.59599C70.7655 7.70999 70.1475 7.85099 69.6375 8.01899C68.8695 8.28299 68.3085 8.65799 67.9545 9.14399C67.6005 9.62399 67.4235 10.218 67.4235 10.926C67.4235 11.46 67.5465 11.949 67.7925 12.393C68.0445 12.837 68.4135 13.194 68.8995 13.464C69.3855 13.728 69.9795 13.86 70.6815 13.86ZM71.1135 12.132C70.6035 12.132 70.2135 12.015 69.9435 11.781C69.6795 11.547 69.5475 11.253 69.5475 10.899C69.5475 10.581 69.6495 10.323 69.8535 10.125C70.0635 9.92699 70.3545 9.75899 70.7265 9.62099C71.0685 9.50699 71.4795 9.40799 71.9595 9.32399C72.4395 9.23399 73.0665 9.12899 73.8405 9.00899C73.8345 9.23699 73.8195 9.49199 73.7955 9.77399C73.7715 10.05 73.7145 10.299 73.6245 10.521C73.5525 10.743 73.4115 10.98 73.2015 11.232C72.9975 11.484 72.7215 11.697 72.3735 11.871C72.0255 12.045 71.6055 12.132 71.1135 12.132Z" fill="url(#paint6_linear_202:2328)"/>
<path d="M79.0677 17.91H81.1017L86.5197 3.86999H84.3507L81.7137 10.827L78.9957 3.86999H76.7367L80.6697 13.518L79.0677 17.91Z" fill="url(#paint7_linear_202:2328)"/>
<path d="M91.8034 13.86C92.7754 13.86 93.6244 13.644 94.3504 13.212C95.0764 12.774 95.6404 12.171 96.0424 11.403C96.4504 10.629 96.6544 9.73799 96.6544 8.72999C96.6544 7.72799 96.4534 6.84299 96.0514 6.07499C95.6494 5.30099 95.0854 4.69499 94.3594 4.25698C93.6334 3.81899 92.7814 3.59999 91.8034 3.59999C90.8494 3.59999 90.0094 3.81599 89.2834 4.24798C88.5574 4.67999 87.9904 5.27999 87.5824 6.04799C87.1744 6.81599 86.9704 7.70999 86.9704 8.72999C86.9704 9.73199 87.1684 10.62 87.5644 11.394C87.9664 12.162 88.5304 12.765 89.2564 13.203C89.9824 13.641 90.8314 13.86 91.8034 13.86ZM91.8034 11.826C90.9694 11.826 90.3364 11.547 89.9044 10.989C89.4784 10.425 89.2654 9.67199 89.2654 8.72999C89.2654 7.81199 89.4694 7.06799 89.8774 6.49799C90.2914 5.92199 90.9334 5.63399 91.8034 5.63399C92.6554 5.63399 93.2944 5.91598 93.7204 6.47999C94.1464 7.03799 94.3594 7.78799 94.3594 8.72999C94.3594 9.64199 94.1464 10.386 93.7204 10.962C93.3004 11.538 92.6614 11.826 91.8034 11.826Z" fill="url(#paint8_linear_202:2328)"/>
<path d="M102.162 13.86C103.416 13.86 104.397 13.581 105.105 13.023C105.819 12.465 106.176 11.697 106.176 10.719C106.176 9.96299 105.936 9.36899 105.456 8.93699C104.982 8.50499 104.163 8.13899 102.999 7.83899C102.243 7.64699 101.673 7.48499 101.289 7.35299C100.911 7.22099 100.659 7.08899 100.533 6.95699C100.407 6.82499 100.344 6.66598 100.344 6.47999C100.344 6.15599 100.5 5.90399 100.812 5.72399C101.124 5.53799 101.535 5.45699 102.045 5.48099C102.573 5.51099 102.996 5.64599 103.314 5.88599C103.638 6.12599 103.83 6.45299 103.89 6.86699L106.104 6.47099C105.984 5.59499 105.555 4.89899 104.817 4.38299C104.079 3.86099 103.143 3.59999 102.009 3.59999C100.851 3.59999 99.9238 3.86999 99.2278 4.40998C98.5318 4.94998 98.1838 5.67598 98.1838 6.58799C98.1838 7.31399 98.4268 7.88699 98.9128 8.30699C99.4048 8.72699 100.26 9.09599 101.478 9.41399C102.21 9.60599 102.75 9.76799 103.098 9.89999C103.452 10.026 103.683 10.155 103.791 10.287C103.899 10.419 103.953 10.596 103.953 10.818C103.953 11.178 103.809 11.463 103.521 11.673C103.233 11.877 102.831 11.979 102.315 11.979C101.721 11.979 101.226 11.841 100.83 11.565C100.44 11.289 100.191 10.911 100.083 10.431L97.8688 10.773C98.0308 11.751 98.4868 12.51 99.2368 13.05C99.9868 13.59 100.962 13.86 102.162 13.86Z" fill="url(#paint9_linear_202:2328)"/>
<path d="M111.9 13.86C113.154 13.86 114.135 13.581 114.843 13.023C115.557 12.465 115.914 11.697 115.914 10.719C115.914 9.96299 115.674 9.36899 115.194 8.93699C114.72 8.50499 113.901 8.13899 112.737 7.83899C111.981 7.64699 111.411 7.48499 111.027 7.35299C110.649 7.22099 110.397 7.08899 110.271 6.95699C110.145 6.82499 110.082 6.66598 110.082 6.47999C110.082 6.15599 110.238 5.90399 110.55 5.72399C110.862 5.53799 111.273 5.45699 111.783 5.48099C112.311 5.51099 112.734 5.64599 113.052 5.88599C113.376 6.12599 113.568 6.45299 113.628 6.86699L115.842 6.47099C115.722 5.59499 115.293 4.89899 114.555 4.38299C113.817 3.86099 112.881 3.59999 111.747 3.59999C110.589 3.59999 109.662 3.86999 108.966 4.40998C108.27 4.94998 107.922 5.67598 107.922 6.58799C107.922 7.31399 108.165 7.88699 108.651 8.30699C109.143 8.72699 109.998 9.09599 111.216 9.41399C111.948 9.60599 112.488 9.76799 112.836 9.89999C113.19 10.026 113.421 10.155 113.529 10.287C113.637 10.419 113.691 10.596 113.691 10.818C113.691 11.178 113.547 11.463 113.259 11.673C112.971 11.877 112.569 11.979 112.053 11.979C111.459 11.979 110.964 11.841 110.568 11.565C110.178 11.289 109.929 10.911 109.821 10.431L107.607 10.773C107.769 11.751 108.225 12.51 108.975 13.05C109.725 13.59 110.7 13.86 111.9 13.86Z" fill="url(#paint10_linear_202:2328)"/>
<path d="M122.178 13.86C123.15 13.86 123.999 13.644 124.725 13.212C125.451 12.774 126.015 12.171 126.417 11.403C126.825 10.629 127.029 9.73799 127.029 8.72999C127.029 7.72799 126.828 6.84299 126.426 6.07499C126.024 5.30099 125.46 4.69499 124.734 4.25698C124.008 3.81899 123.156 3.59999 122.178 3.59999C121.224 3.59999 120.384 3.81599 119.658 4.24798C118.932 4.67999 118.365 5.27999 117.957 6.04799C117.549 6.81599 117.345 7.70999 117.345 8.72999C117.345 9.73199 117.543 10.62 117.939 11.394C118.341 12.162 118.905 12.765 119.631 13.203C120.357 13.641 121.206 13.86 122.178 13.86ZM122.178 11.826C121.344 11.826 120.711 11.547 120.279 10.989C119.853 10.425 119.64 9.67199 119.64 8.72999C119.64 7.81199 119.844 7.06799 120.252 6.49799C120.666 5.92199 121.308 5.63399 122.178 5.63399C123.03 5.63399 123.669 5.91598 124.095 6.47999C124.521 7.03799 124.734 7.78799 124.734 8.72999C124.734 9.64199 124.521 10.386 124.095 10.962C123.675 11.538 123.036 11.826 122.178 11.826Z" fill="url(#paint11_linear_202:2328)"/>
<path d="M4.30475 30.76C4.95675 30.76 5.53275 30.624 6.03275 30.352C6.53275 30.08 6.92475 29.7 7.20875 29.212C7.49675 28.72 7.64075 28.146 7.64075 27.49V21.94H6.94475V27.346C6.94475 27.838 6.86075 28.26 6.69275 28.612C6.52875 28.96 6.31275 29.244 6.04475 29.464C5.78075 29.684 5.49475 29.846 5.18675 29.95C4.88275 30.054 4.58875 30.106 4.30475 30.106C4.02075 30.106 3.72475 30.054 3.41675 29.95C3.11275 29.846 2.82675 29.684 2.55875 29.464C2.29475 29.244 2.07875 28.96 1.91075 28.612C1.74675 28.26 1.66475 27.838 1.66475 27.346V21.94H0.96875V27.49C0.96875 28.146 1.11075 28.72 1.39475 29.212C1.68275 29.704 2.07675 30.086 2.57675 30.358C3.08075 30.626 3.65675 30.76 4.30475 30.76Z" fill="#191921"/>
<path d="M8.60422 30.58H9.43822L12.0182 26.782L14.6042 30.58H15.4382L12.4262 26.2L15.3662 21.94H14.5322L12.0182 25.63L9.51022 21.94H8.67622L11.6162 26.2L8.60422 30.58Z" fill="#191921"/>
<path d="M18.8047 30.58H21.3787C21.4707 30.58 21.6307 30.578 21.8587 30.574C22.0907 30.566 22.3087 30.548 22.5127 30.52C23.1607 30.428 23.6987 30.186 24.1267 29.794C24.5547 29.398 24.8747 28.894 25.0867 28.282C25.2987 27.67 25.4047 26.996 25.4047 26.26C25.4047 25.524 25.2987 24.85 25.0867 24.238C24.8747 23.626 24.5547 23.122 24.1267 22.726C23.6987 22.33 23.1607 22.088 22.5127 22C22.3047 21.968 22.0867 21.95 21.8587 21.946C21.6347 21.942 21.4747 21.94 21.3787 21.94H18.8047V30.58ZM19.5307 29.902V22.618H21.3787C21.5467 22.618 21.7287 22.624 21.9247 22.636C22.1247 22.644 22.2927 22.66 22.4287 22.684C22.9647 22.776 23.3967 22.988 23.7247 23.32C24.0527 23.648 24.2907 24.066 24.4387 24.574C24.5907 25.078 24.6667 25.64 24.6667 26.26C24.6667 26.876 24.5907 27.438 24.4387 27.946C24.2907 28.45 24.0527 28.868 23.7247 29.2C23.3967 29.528 22.9647 29.74 22.4287 29.836C22.2927 29.86 22.1287 29.878 21.9367 29.89C21.7447 29.898 21.5587 29.902 21.3787 29.902H19.5307Z" fill="#191921"/>
<path d="M29.4083 30.76C30.0403 30.76 30.6023 30.608 31.0943 30.304C31.5863 29.996 31.9623 29.564 32.2223 29.008L31.5983 28.732C31.3783 29.168 31.0803 29.504 30.7043 29.74C30.3323 29.972 29.8963 30.088 29.3963 30.088C28.7003 30.088 28.1543 29.866 27.7583 29.422C27.3623 28.974 27.1503 28.346 27.1223 27.538H32.3603C32.3763 26.402 32.1223 25.516 31.5983 24.88C31.0743 24.24 30.3403 23.92 29.3963 23.92C28.7763 23.92 28.2403 24.06 27.7883 24.34C27.3363 24.616 26.9883 25.01 26.7443 25.522C26.5003 26.034 26.3783 26.644 26.3783 27.352C26.3783 28.048 26.5003 28.652 26.7443 29.164C26.9923 29.672 27.3423 30.066 27.7943 30.346C28.2503 30.622 28.7883 30.76 29.4083 30.76ZM29.4083 24.574C30.0643 24.574 30.5783 24.774 30.9503 25.174C31.3263 25.574 31.5483 26.154 31.6163 26.914H27.1343C27.1983 26.166 27.4243 25.59 27.8123 25.186C28.2043 24.778 28.7363 24.574 29.4083 24.574Z" fill="#191921"/>
<path d="M36.0815 30.748C36.8615 30.748 37.4735 30.578 37.9175 30.238C38.3655 29.898 38.5895 29.426 38.5895 28.822C38.5895 28.49 38.5175 28.212 38.3735 27.988C38.2295 27.76 37.9815 27.562 37.6295 27.394C37.2815 27.222 36.7955 27.058 36.1715 26.902C35.6635 26.774 35.2675 26.654 34.9835 26.542C34.7035 26.426 34.5075 26.302 34.3955 26.17C34.2875 26.034 34.2335 25.872 34.2335 25.684C34.2335 25.348 34.3915 25.078 34.7075 24.874C35.0235 24.666 35.4315 24.566 35.9315 24.574C36.4635 24.578 36.9035 24.702 37.2515 24.946C37.6035 25.186 37.8135 25.514 37.8815 25.93L38.5895 25.798C38.5535 25.426 38.4175 25.1 38.1815 24.82C37.9455 24.536 37.6355 24.316 37.2515 24.16C36.8675 24 36.4355 23.92 35.9555 23.92C35.4755 23.92 35.0515 23.996 34.6835 24.148C34.3195 24.3 34.0355 24.512 33.8315 24.784C33.6275 25.052 33.5255 25.364 33.5255 25.72C33.5255 26.016 33.5935 26.266 33.7295 26.47C33.8695 26.674 34.1075 26.856 34.4435 27.016C34.7835 27.172 35.2535 27.332 35.8535 27.496C36.4215 27.648 36.8495 27.784 37.1375 27.904C37.4255 28.02 37.6175 28.146 37.7135 28.282C37.8135 28.418 37.8635 28.596 37.8635 28.816C37.8635 29.212 37.7055 29.524 37.3895 29.752C37.0735 29.98 36.6475 30.094 36.1115 30.094C35.5715 30.094 35.1155 29.982 34.7435 29.758C34.3755 29.53 34.1395 29.222 34.0355 28.834L33.3275 28.954C33.4435 29.518 33.7435 29.958 34.2275 30.274C34.7155 30.59 35.3335 30.748 36.0815 30.748Z" fill="#191921"/>
<path d="M40.0419 22.792H40.7319V21.91H40.0419V22.792ZM40.0419 30.58H40.7319V24.1H40.0419V30.58Z" fill="#191921"/>
<path d="M45.0252 30.76C45.5012 30.76 45.9172 30.656 46.2732 30.448C46.6332 30.24 46.9292 29.958 47.1612 29.602V30.352C47.1652 31.208 47.0132 31.854 46.7052 32.29C46.3972 32.73 45.8492 32.95 45.0612 32.95C44.6852 32.95 44.3192 32.864 43.9632 32.692C43.6072 32.52 43.3292 32.234 43.1292 31.834L42.5052 32.206C42.7932 32.73 43.1692 33.1 43.6332 33.316C44.1012 33.532 44.5752 33.64 45.0552 33.64C45.8712 33.64 46.5052 33.46 46.9572 33.1C47.4132 32.74 47.6932 32.184 47.7972 31.432C47.8252 31.256 47.8432 31.08 47.8512 30.904C47.8592 30.728 47.8632 30.544 47.8632 30.352V24.1H47.2332V25.18C47.0012 24.788 46.6952 24.48 46.3152 24.256C45.9352 24.032 45.4832 23.92 44.9592 23.92C44.3712 23.92 43.8692 24.072 43.4532 24.376C43.0412 24.676 42.7252 25.084 42.5052 25.6C42.2852 26.112 42.1752 26.688 42.1752 27.328C42.1752 27.976 42.2852 28.56 42.5052 29.08C42.7252 29.596 43.0472 30.006 43.4712 30.31C43.8992 30.61 44.4172 30.76 45.0252 30.76ZM45.0672 30.1C44.5912 30.1 44.1932 29.978 43.8732 29.734C43.5532 29.49 43.3132 29.16 43.1532 28.744C42.9932 28.324 42.9132 27.852 42.9132 27.328C42.9132 26.808 42.9912 26.342 43.1472 25.93C43.3032 25.514 43.5412 25.186 43.8612 24.946C44.1812 24.702 44.5872 24.58 45.0792 24.58C45.5552 24.58 45.9532 24.698 46.2732 24.934C46.5932 25.17 46.8332 25.494 46.9932 25.906C47.1532 26.318 47.2332 26.792 47.2332 27.328C47.2332 27.856 47.1532 28.33 46.9932 28.75C46.8332 29.166 46.5932 29.496 46.2732 29.74C45.9532 29.98 45.5512 30.1 45.0672 30.1Z" fill="#191921"/>
<path d="M49.543 30.58H50.239V27.082C50.239 26.606 50.311 26.182 50.455 25.81C50.603 25.438 50.827 25.146 51.127 24.934C51.427 24.722 51.813 24.616 52.285 24.616C52.965 24.616 53.469 24.844 53.797 25.3C54.125 25.752 54.289 26.388 54.289 27.208V30.58H54.985V27.034C54.985 26.47 54.891 25.954 54.703 25.486C54.519 25.018 54.233 24.646 53.845 24.37C53.461 24.09 52.971 23.95 52.375 23.95C51.911 23.95 51.487 24.042 51.103 24.226C50.723 24.41 50.413 24.692 50.173 25.072V24.1H49.543V30.58Z" fill="#191921"/>
<path d="M59.1856 30.76C59.8176 30.76 60.3796 30.608 60.8716 30.304C61.3636 29.996 61.7396 29.564 61.9996 29.008L61.3756 28.732C61.1556 29.168 60.8576 29.504 60.4816 29.74C60.1096 29.972 59.6736 30.088 59.1736 30.088C58.4776 30.088 57.9316 29.866 57.5356 29.422C57.1396 28.974 56.9276 28.346 56.8996 27.538H62.1376C62.1536 26.402 61.8996 25.516 61.3756 24.88C60.8516 24.24 60.1176 23.92 59.1736 23.92C58.5536 23.92 58.0176 24.06 57.5656 24.34C57.1136 24.616 56.7656 25.01 56.5216 25.522C56.2776 26.034 56.1556 26.644 56.1556 27.352C56.1556 28.048 56.2776 28.652 56.5216 29.164C56.7696 29.672 57.1196 30.066 57.5716 30.346C58.0276 30.622 58.5656 30.76 59.1856 30.76ZM59.1856 24.574C59.8416 24.574 60.3556 24.774 60.7276 25.174C61.1036 25.574 61.3256 26.154 61.3936 26.914H56.9116C56.9756 26.166 57.2016 25.59 57.5896 25.186C57.9816 24.778 58.5136 24.574 59.1856 24.574Z" fill="#191921"/>
<path d="M63.4648 30.58H64.1608V27.37C64.1608 27.106 64.1728 26.836 64.1968 26.56C64.2248 26.28 64.2888 26.014 64.3888 25.762C64.4928 25.506 64.6548 25.282 64.8748 25.09C65.1228 24.878 65.3908 24.754 65.6788 24.718C65.9708 24.682 66.2448 24.694 66.5008 24.754V24.1C66.2168 24.02 65.8848 24.016 65.5048 24.088C65.1288 24.16 64.8108 24.314 64.5508 24.55C64.3788 24.698 64.2268 24.888 64.0948 25.12V24.1H63.4648V30.58Z" fill="#191921"/>
<defs>
<linearGradient id="paint0_linear_202:2328" x1="0.96875" y1="0.359985" x2="5.76242" y2="34.7926" gradientUnits="userSpaceOnUse">
<stop stop-color="#9998EB"/>
<stop offset="1" stop-color="#DC6983"/>
</linearGradient>
<linearGradient id="paint1_linear_202:2328" x1="0.96875" y1="0.359985" x2="5.76242" y2="34.7926" gradientUnits="userSpaceOnUse">
<stop stop-color="#9998EB"/>
<stop offset="1" stop-color="#DC6983"/>
</linearGradient>
<linearGradient id="paint2_linear_202:2328" x1="0.96875" y1="0.359985" x2="5.76242" y2="34.7926" gradientUnits="userSpaceOnUse">
<stop stop-color="#9998EB"/>
<stop offset="1" stop-color="#DC6983"/>
</linearGradient>
<linearGradient id="paint3_linear_202:2328" x1="0.96875" y1="0.359985" x2="5.76242" y2="34.7926" gradientUnits="userSpaceOnUse">
<stop stop-color="#9998EB"/>
<stop offset="1" stop-color="#DC6983"/>
</linearGradient>
<linearGradient id="paint4_linear_202:2328" x1="0.96875" y1="0.359985" x2="5.76242" y2="34.7926" gradientUnits="userSpaceOnUse">
<stop stop-color="#9998EB"/>
<stop offset="1" stop-color="#DC6983"/>
</linearGradient>
<linearGradient id="paint5_linear_202:2328" x1="0.96875" y1="0.359985" x2="5.76242" y2="34.7926" gradientUnits="userSpaceOnUse">
<stop stop-color="#9998EB"/>
<stop offset="1" stop-color="#DC6983"/>
</linearGradient>
<linearGradient id="paint6_linear_202:2328" x1="0.96875" y1="0.359985" x2="5.76242" y2="34.7926" gradientUnits="userSpaceOnUse">
<stop stop-color="#9998EB"/>
<stop offset="1" stop-color="#DC6983"/>
</linearGradient>
<linearGradient id="paint7_linear_202:2328" x1="0.96875" y1="0.359985" x2="5.76242" y2="34.7926" gradientUnits="userSpaceOnUse">
<stop stop-color="#9998EB"/>
<stop offset="1" stop-color="#DC6983"/>
</linearGradient>
<linearGradient id="paint8_linear_202:2328" x1="0.96875" y1="0.359985" x2="5.76242" y2="34.7926" gradientUnits="userSpaceOnUse">
<stop stop-color="#9998EB"/>
<stop offset="1" stop-color="#DC6983"/>
</linearGradient>
<linearGradient id="paint9_linear_202:2328" x1="0.96875" y1="0.359985" x2="5.76242" y2="34.7926" gradientUnits="userSpaceOnUse">
<stop stop-color="#9998EB"/>
<stop offset="1" stop-color="#DC6983"/>
</linearGradient>
<linearGradient id="paint10_linear_202:2328" x1="0.96875" y1="0.359985" x2="5.76242" y2="34.7926" gradientUnits="userSpaceOnUse">
<stop stop-color="#9998EB"/>
<stop offset="1" stop-color="#DC6983"/>
</linearGradient>
<linearGradient id="paint11_linear_202:2328" x1="0.96875" y1="0.359985" x2="5.76242" y2="34.7926" gradientUnits="userSpaceOnUse">
<stop stop-color="#9998EB"/>
<stop offset="1" stop-color="#DC6983"/>
</linearGradient>
</defs>
</svg>
