<svg width="31" height="30" viewBox="0 0 31 30" fill="none" xmlns="http://www.w3.org/2000/svg">
<path fill-rule="evenodd" clip-rule="evenodd" d="M25.1065 26.875C26.4981 26.875 27.6265 25.757 27.6265 24.376V4.37399C27.6265 2.99445 26.4996 1.875 25.1065 1.875H5.14639C3.75483 1.875 2.62646 2.99445 2.62646 4.37399V24.376C2.62646 25.7556 3.75338 26.875 5.14639 26.875H25.1065ZM6.53577 9.71327C6.53577 9.16099 6.98348 8.71327 7.53577 8.71327H22.8765C23.4287 8.71327 23.8765 9.16099 23.8765 9.71327V20.2133C23.8765 20.7656 23.4287 21.2133 22.8765 21.2133H7.53577C6.98348 21.2133 6.53577 20.7656 6.53577 20.2133V9.71327ZM22.5164 10.7862C22.6939 11.0147 22.6526 11.3439 22.4241 11.5214L15.8959 16.5924C15.3151 17.0435 14.4991 17.0316 13.9317 16.5637L7.80607 11.5118C7.58284 11.3277 7.55112 10.9975 7.73521 10.7743C7.91931 10.5511 8.24951 10.5193 8.47273 10.7034L14.5984 15.7553C14.7875 15.9113 15.0595 15.9153 15.2531 15.7649L21.7813 10.6939C22.0098 10.5164 22.3389 10.5577 22.5164 10.7862Z" fill="black"/>
</svg>
