<svg width="24" height="24" viewBox="0 0 24 24" fill="none" xmlns="http://www.w3.org/2000/svg">
<path fill-rule="evenodd" clip-rule="evenodd" d="M21 20.0008C21 20.5452 20.5532 21 19.9841 21H4.01594C3.44643 21 3 20.5448 3 20.0008V3.9992C3 3.45557 3.44722 3 4.01594 3H19.9841C20.5536 3 21 3.4552 21 3.9992V20.0008ZM22 20.0008C22 21.1056 21.0973 22 19.9841 22H4.01594C2.90153 22 2 21.1044 2 20.0008V3.9992C2 2.89556 2.90269 2 4.01594 2H19.9841C21.0985 2 22 2.89556 22 3.9992V20.0008ZM5.12744 7.9707C5.12744 7.41842 5.57516 6.9707 6.12744 6.9707H18C18.5523 6.9707 19 7.41842 19 7.9707V15.9707C19 16.523 18.5523 16.9707 18 16.9707H6.12744C5.57516 16.9707 5.12744 16.523 5.12744 15.9707V7.9707ZM17.912 8.62907C18.054 8.81187 18.0209 9.07518 17.8381 9.21718L12.6156 13.274C12.1509 13.6349 11.4981 13.6254 11.0442 13.251L6.14368 9.20953C5.9651 9.06226 5.93972 8.7981 6.087 8.61952C6.23427 8.44094 6.49843 8.41556 6.67701 8.56284L11.5776 12.6043C11.7289 12.7291 11.9465 12.7323 12.1013 12.612L17.3239 8.55519C17.5067 8.41319 17.77 8.44627 17.912 8.62907Z" fill="#8DF2FD"/>
</svg>
