<svg width="360" height="204" viewBox="0 0 360 204" fill="none" xmlns="http://www.w3.org/2000/svg">
<path d="M47.7261 14.9053C57.4966 14.9053 64.8151 16.777 69.6816 20.5205C74.5482 24.264 76.9814 30.0851 76.9814 37.9839C76.9814 42.0269 76.3263 45.6206 75.0161 48.7651C73.7433 51.8722 71.8154 54.4927 69.2324 56.6265C66.6494 58.7603 63.4113 60.37 59.5181 61.4556C55.6623 62.5412 51.1514 63.084 45.9854 63.084H33.3511V97H27.5674V14.9053H47.7261ZM47.1084 20.0151H33.3511V57.9741H45.4238C50.7396 57.9741 55.3066 57.3752 59.125 56.1772C62.9434 54.9419 65.882 52.883 67.9409 50.0005C69.9998 47.118 71.0293 43.1873 71.0293 38.2085C71.0293 31.882 69.0827 27.2775 65.1895 24.395C61.2962 21.4751 55.2692 20.0151 47.1084 20.0151ZM135.977 66.397C135.977 71.1138 135.397 75.4188 134.237 79.312C133.076 83.1678 131.354 86.4995 129.071 89.3071C126.787 92.1147 123.942 94.286 120.535 95.8208C117.166 97.3556 113.236 98.123 108.743 98.123C104.476 98.123 100.676 97.3743 97.3445 95.877C94.0128 94.3421 91.1865 92.1709 88.8655 89.3633C86.582 86.5557 84.8413 83.224 83.6434 79.3682C82.4454 75.4749 81.8465 71.1512 81.8465 66.397C81.8465 59.8459 82.9321 54.2119 85.1033 49.4951C87.312 44.7409 90.4565 41.1097 94.5369 38.6016C98.6548 36.056 103.577 34.7832 109.305 34.7832C115.22 34.7832 120.142 36.1309 124.073 38.8262C128.041 41.484 131.017 45.1901 133.001 49.9443C134.985 54.6986 135.977 60.1828 135.977 66.397ZM87.6863 66.397C87.6863 71.7502 88.4537 76.4295 89.9886 80.4351C91.5234 84.4406 93.8444 87.5664 96.9515 89.8125C100.096 92.0586 104.064 93.1816 108.856 93.1816C113.76 93.1816 117.784 92.0586 120.929 89.8125C124.073 87.5664 126.394 84.4219 127.891 80.3789C129.389 76.3359 130.138 71.6753 130.138 66.397C130.138 61.2684 129.426 56.7013 128.004 52.6958C126.581 48.6903 124.335 45.5457 121.265 43.2622C118.196 40.9412 114.19 39.7808 109.249 39.7808C102.174 39.7808 96.8017 42.1392 93.1331 46.856C89.5019 51.5728 87.6863 58.0864 87.6863 66.397ZM179.437 34.8955C181.047 34.8955 182.563 34.9891 183.985 35.1763C185.408 35.3634 186.737 35.6255 187.972 35.9624L187.074 41.1846C185.838 40.8477 184.584 40.6043 183.312 40.4546C182.039 40.2674 180.672 40.1738 179.212 40.1738C176.33 40.1738 173.747 40.7166 171.463 41.8022C169.217 42.8879 167.308 44.4414 165.736 46.4629C164.164 48.4844 162.966 50.9176 162.142 53.7627C161.319 56.6077 160.907 59.7897 160.907 63.3086V97H155.179V35.9624H160.064L160.626 47.4736H160.963C161.899 45.1152 163.209 43.0002 164.894 41.1284C166.616 39.2192 168.693 37.7031 171.126 36.5801C173.56 35.457 176.33 34.8955 179.437 34.8955ZM219.891 93.2378C221.651 93.2378 223.279 93.1068 224.777 92.8447C226.311 92.5827 227.659 92.2458 228.82 91.834V96.5508C227.622 96.9626 226.218 97.3182 224.608 97.6177C222.998 97.9546 221.22 98.123 219.274 98.123C215.83 98.123 212.966 97.4867 210.682 96.2139C208.399 94.9036 206.677 92.9383 205.516 90.3179C204.356 87.66 203.776 84.2909 203.776 80.2104V40.6792H194.679V37.3101L203.72 35.5693L205.685 21.1943H209.447V35.9624H228.483V40.6792H209.447V79.8735C209.447 84.2534 210.252 87.5851 211.862 89.8687C213.509 92.1147 216.185 93.2378 219.891 93.2378ZM48.8491 139.679H34.4741V196H28.8027V139.679H17.46V136.31L28.8027 134.85V128.112C28.8027 123.62 29.4391 119.895 30.7119 116.938C32.0221 113.943 33.9875 111.715 36.6079 110.255C39.2658 108.758 42.6162 108.009 46.6592 108.009C48.7555 108.009 50.646 108.178 52.3306 108.515C54.0151 108.814 55.5874 109.207 57.0474 109.694L55.7559 114.467C54.4456 114.018 52.9857 113.643 51.376 113.344C49.8037 113.044 48.2502 112.895 46.7153 112.895C42.4103 112.895 39.2845 114.092 37.3379 116.488C35.4287 118.847 34.4741 122.702 34.4741 128.056V134.962H48.8491V139.679ZM112.497 165.397C112.497 170.114 111.916 174.419 110.756 178.312C109.595 182.168 107.873 185.5 105.59 188.307C103.306 191.115 100.461 193.286 97.0548 194.821C93.6856 196.356 89.755 197.123 85.2628 197.123C80.9952 197.123 77.1956 196.374 73.8639 194.877C70.5322 193.342 67.7058 191.171 65.3849 188.363C63.1013 185.556 61.3606 182.224 60.1627 178.368C58.9648 174.475 58.3658 170.151 58.3658 165.397C58.3658 158.846 59.4514 153.212 61.6227 148.495C63.8313 143.741 66.9758 140.11 71.0563 137.602C75.1741 135.056 80.0968 133.783 85.8243 133.783C91.739 133.783 96.6617 135.131 100.592 137.826C104.56 140.484 107.537 144.19 109.521 148.944C111.505 153.699 112.497 159.183 112.497 165.397ZM64.2057 165.397C64.2057 170.75 64.9731 175.43 66.5079 179.435C68.0427 183.441 70.3637 186.566 73.4708 188.812C76.6153 191.059 80.5834 192.182 85.3751 192.182C90.2791 192.182 94.3033 191.059 97.4479 188.812C100.592 186.566 102.913 183.422 104.411 179.379C105.908 175.336 106.657 170.675 106.657 165.397C106.657 160.268 105.946 155.701 104.523 151.696C103.101 147.69 100.854 144.546 97.7848 142.262C94.7151 139.941 90.7096 138.781 85.7682 138.781C78.693 138.781 73.3211 141.139 69.6524 145.856C66.0213 150.573 64.2057 157.086 64.2057 165.397ZM135.126 196H129.399V108.627H135.126V196ZM166.818 134.962V196H161.147V134.962H166.818ZM164.067 112.389C165.49 112.389 166.538 112.82 167.212 113.681C167.885 114.504 168.222 115.627 168.222 117.05C168.222 118.472 167.885 119.595 167.212 120.419C166.538 121.243 165.49 121.654 164.067 121.654C162.719 121.654 161.709 121.243 161.035 120.419C160.361 119.595 160.024 118.472 160.024 117.05C160.024 115.627 160.361 114.504 161.035 113.681C161.709 112.82 162.719 112.389 164.067 112.389ZM237.851 165.397C237.851 170.114 237.271 174.419 236.11 178.312C234.95 182.168 233.228 185.5 230.944 188.307C228.661 191.115 225.816 193.286 222.409 194.821C219.04 196.356 215.109 197.123 210.617 197.123C206.35 197.123 202.55 196.374 199.218 194.877C195.887 193.342 193.06 191.171 190.739 188.363C188.456 185.556 186.715 182.224 185.517 178.368C184.319 174.475 183.72 170.151 183.72 165.397C183.72 158.846 184.806 153.212 186.977 148.495C189.186 143.741 192.33 140.11 196.411 137.602C200.529 135.056 205.451 133.783 211.179 133.783C217.094 133.783 222.016 135.131 225.947 137.826C229.915 140.484 232.891 144.19 234.875 148.944C236.859 153.699 237.851 159.183 237.851 165.397ZM189.56 165.397C189.56 170.75 190.328 175.43 191.862 179.435C193.397 183.441 195.718 186.566 198.825 188.812C201.97 191.059 205.938 192.182 210.73 192.182C215.634 192.182 219.658 191.059 222.802 188.812C225.947 186.566 228.268 183.422 229.765 179.379C231.263 175.336 232.011 170.675 232.011 165.397C232.011 160.268 231.3 155.701 229.878 151.696C228.455 147.69 226.209 144.546 223.139 142.262C220.07 139.941 216.064 138.781 211.123 138.781C204.047 138.781 198.676 141.139 195.007 145.856C191.376 150.573 189.56 157.086 189.56 165.397Z" fill="#F0F0F5"/>
<rect x="206" y="36" width="154" height="5" fill="#F0F0F5"/>
</svg>
