<svg width="759" height="142" viewBox="0 0 759 142" fill="none" xmlns="http://www.w3.org/2000/svg">
<path d="M320.237 90.8252C320.237 97.6338 319.4 103.848 317.725 109.468C316.049 115.034 313.564 119.843 310.268 123.896C306.971 127.948 302.865 131.082 297.947 133.298C293.084 135.513 287.41 136.621 280.926 136.621C274.766 136.621 269.281 135.54 264.472 133.379C259.662 131.163 255.583 128.029 252.232 123.977C248.936 119.924 246.424 115.115 244.694 109.549C242.965 103.929 242.101 97.6878 242.101 90.8252C242.101 81.3688 243.668 73.2363 246.802 66.4277C249.99 59.5651 254.529 54.3236 260.419 50.7031C266.363 47.0286 273.469 45.1914 281.736 45.1914C290.274 45.1914 297.38 47.1367 303.054 51.0273C308.782 54.8639 313.077 60.2135 315.941 67.0762C318.805 73.9388 320.237 81.8551 320.237 90.8252ZM250.53 90.8252C250.53 98.5524 251.638 105.307 253.854 111.089C256.069 116.871 259.419 121.383 263.904 124.625C268.443 127.867 274.171 129.488 281.088 129.488C288.167 129.488 293.976 127.867 298.515 124.625C303.054 121.383 306.404 116.844 308.565 111.008C310.727 105.172 311.808 98.4443 311.808 90.8252C311.808 83.4222 310.781 76.8298 308.728 71.0479C306.674 65.266 303.432 60.7269 299.001 57.4307C294.57 54.0804 288.788 52.4053 281.655 52.4053C271.442 52.4053 263.688 55.8096 258.393 62.6182C253.151 69.4268 250.53 78.8291 250.53 90.8252Z" fill="#304B5F"/>
<path d="M217.703 46.8936V135H209.517V46.8936H217.703ZM213.731 14.3096C215.785 14.3096 217.298 14.931 218.271 16.1738C219.243 17.3626 219.729 18.9837 219.729 21.0371C219.729 23.0905 219.243 24.7116 218.271 25.9004C217.298 27.0892 215.785 27.6836 213.731 27.6836C211.786 27.6836 210.327 27.0892 209.354 25.9004C208.382 24.7116 207.896 23.0905 207.896 21.0371C207.896 18.9837 208.382 17.3626 209.354 16.1738C210.327 14.931 211.786 14.3096 213.731 14.3096Z" fill="#304B5F"/>
<path d="M171.956 135H163.688V8.87891H171.956V135Z" fill="#304B5F"/>
<path d="M139.291 90.8252C139.291 97.6338 138.453 103.848 136.778 109.468C135.103 115.034 132.618 119.843 129.321 123.896C126.025 127.948 121.918 131.082 117.001 133.298C112.138 135.513 106.464 136.621 99.9795 136.621C93.8193 136.621 88.3346 135.54 83.5254 133.379C78.7161 131.163 74.6364 128.029 71.2861 123.977C67.9899 119.924 65.4772 115.115 63.748 109.549C62.0189 103.929 61.1543 97.6878 61.1543 90.8252C61.1543 81.3688 62.7214 73.2363 65.8555 66.4277C69.0436 59.5651 73.5827 54.3236 79.4727 50.7031C85.4167 47.0286 92.5225 45.1914 100.79 45.1914C109.328 45.1914 116.434 47.1367 122.107 51.0273C127.835 54.8639 132.131 60.2135 134.995 67.0762C137.859 73.9388 139.291 81.8551 139.291 90.8252ZM69.584 90.8252C69.584 98.5524 70.6917 105.307 72.9072 111.089C75.1227 116.871 78.473 121.383 82.958 124.625C87.4971 127.867 93.2249 129.488 100.142 129.488C107.22 129.488 113.029 127.867 117.568 124.625C122.107 121.383 125.458 116.844 127.619 111.008C129.781 105.172 130.861 98.4443 130.861 90.8252C130.861 83.4222 129.835 76.8298 127.781 71.0479C125.728 65.266 122.486 60.7269 118.055 57.4307C113.624 54.0804 107.842 52.4053 100.709 52.4053C90.4961 52.4053 82.7419 55.8096 77.4463 62.6182C72.2048 69.4268 69.584 78.8291 69.584 90.8252Z" fill="#304B5F"/>
<path d="M47.417 53.7021H26.667V135H18.4805V53.7021H2.10742V48.8389L18.4805 46.7314V37.0049C18.4805 30.5205 19.3991 25.1439 21.2363 20.875C23.1276 16.5521 25.9645 13.3369 29.7471 11.2295C33.5837 9.06803 38.4199 7.9873 44.2559 7.9873C47.2819 7.9873 50.0107 8.23047 52.4424 8.7168C54.874 9.14909 57.1436 9.71647 59.251 10.4189L57.3867 17.3086C55.4954 16.6602 53.388 16.1198 51.0645 15.6875C48.7949 15.2552 46.5524 15.0391 44.3369 15.0391C38.1227 15.0391 33.6107 16.7682 30.8008 20.2266C28.0449 23.6309 26.667 29.1966 26.667 36.9238V46.8936H47.417V53.7021Z" fill="#304B5F"/>
</svg>
