<svg width="1272" height="80" viewBox="0 0 1272 80" fill="none" xmlns="http://www.w3.org/2000/svg">
<rect width="1272" height="80" fill="white"/>
<path fill-rule="evenodd" clip-rule="evenodd" d="M39.5938 15.9375C42.625 14.625 46.0312 13.9688 49.8125 13.9688C52.8438 13.9688 55.6562 14.3438 58.25 15.0938C60.875 15.8125 63.2812 16.6719 65.4688 17.6719L68.6562 10.9219C66.0625 9.64062 63.1562 8.65625 59.9375 7.96875C56.7188 7.28125 53.375 6.9375 49.9062 6.9375C44.625 6.9375 39.9375 7.79688 35.8438 9.51562C31.7812 11.2031 28.3438 13.6094 25.5312 16.7344C22.75 19.8594 20.625 23.5781 19.1562 27.8906C17.7188 32.1719 17 36.9062 17 42.0938C17 49.2812 18.1562 55.5156 20.4688 60.7969C22.8125 66.0781 26.3125 70.1719 30.9688 73.0781C35.6562 75.9531 41.4844 77.3906 48.4531 77.3906C52.2344 77.3906 55.5 77.1562 58.25 76.6875C61 76.25 63.625 75.5625 66.125 74.625V67.6875C63.5625 68.4688 60.9219 69.125 58.2031 69.6562C55.5156 70.1562 52.6406 70.4062 49.5781 70.4062C44.2031 70.4062 39.7188 69.25 36.125 66.9375C32.5625 64.625 29.875 61.3594 28.0625 57.1406C26.2812 52.8906 25.3906 47.8906 25.3906 42.1406C25.3906 37.7969 25.9531 33.8906 27.0781 30.4219C28.2031 26.9531 29.8125 24 31.9062 21.5625C34.0312 19.0938 36.5938 17.2188 39.5938 15.9375ZM122.469 61.9688C123.562 58.6562 124.109 54.8906 124.109 50.6719C124.109 45.0781 123.125 40.3125 121.156 36.375C119.219 32.4062 116.484 29.375 112.953 27.2812C109.453 25.1875 105.359 24.1406 100.672 24.1406C95.7656 24.1406 91.5312 25.1875 87.9688 27.2812C84.4375 29.3438 81.7188 32.3594 79.8125 36.3281C77.9062 40.2656 76.9531 45.0469 76.9531 50.6719C76.9531 54.8906 77.5156 58.6562 78.6406 61.9688C79.7969 65.2812 81.4062 68.0781 83.4688 70.3594C85.5625 72.6406 88.0312 74.3906 90.875 75.6094C93.75 76.7969 96.9062 77.3906 100.344 77.3906C104.031 77.3906 107.328 76.7969 110.234 75.6094C113.172 74.3906 115.672 72.6406 117.734 70.3594C119.797 68.0781 121.375 65.2812 122.469 61.9688ZM86.6562 61.4062C85.5625 58.375 85.0156 54.7969 85.0156 50.6719C85.0156 44.4219 86.25 39.5312 88.7188 36C91.2188 32.4688 95.1406 30.7031 100.484 30.7031C104.109 30.7031 107.062 31.5156 109.344 33.1406C111.625 34.7656 113.312 37.0781 114.406 40.0781C115.5 43.0469 116.047 46.5781 116.047 50.6719C116.047 54.7969 115.5 58.375 114.406 61.4062C113.312 64.4375 111.609 66.7812 109.297 68.4375C107.016 70.0938 104.094 70.9219 100.531 70.9219C96.9375 70.9219 94 70.0938 91.7188 68.4375C89.4375 66.7812 87.75 64.4375 86.6562 61.4062ZM137.562 76.4531H145.391V3.51562H137.562V76.4531ZM161.844 76.4531H169.672V3.51562H161.844V76.4531ZM217.156 27.0469C214.031 25.1094 210.281 24.1406 205.906 24.1406C201.312 24.1406 197.312 25.2344 193.906 27.4219C190.531 29.6094 187.906 32.7344 186.031 36.7969C184.188 40.8281 183.266 45.6094 183.266 51.1406C183.266 56.7969 184.281 61.5781 186.312 65.4844C188.344 69.3906 191.188 72.3594 194.844 74.3906C198.531 76.3906 202.844 77.3906 207.781 77.3906C211.25 77.3906 214.25 77.125 216.781 76.5938C219.344 76.0625 221.922 75.2188 224.516 74.0625V67.2188C221.828 68.375 219.234 69.25 216.734 69.8438C214.234 70.4375 211.359 70.7344 208.109 70.7344C202.828 70.7344 198.734 69.1562 195.828 66C192.922 62.8438 191.422 58.25 191.328 52.2188H226.812V47.3906C226.812 42.7344 225.984 38.6719 224.328 35.2031C222.672 31.7031 220.281 28.9844 217.156 27.0469ZM195.875 34.5938C198.344 31.875 201.656 30.5156 205.812 30.5156C208.75 30.5156 211.156 31.1719 213.031 32.4844C214.906 33.7656 216.297 35.5781 217.203 37.9219C218.141 40.2344 218.625 42.9219 218.656 45.9844H191.469C191.938 41.1094 193.406 37.3125 195.875 34.5938ZM248.375 74.5312C251.906 76.4375 255.984 77.3906 260.609 77.3906C263.516 77.3906 266.016 77.1562 268.109 76.6875C270.234 76.2188 272.156 75.5469 273.875 74.6719V67.7344C272.094 68.5156 270.109 69.2031 267.922 69.7969C265.734 70.3594 263.281 70.6406 260.562 70.6406C257.156 70.6406 254.312 69.875 252.031 68.3438C249.781 66.7812 248.078 64.5312 246.922 61.5938C245.797 58.6562 245.234 55.1094 245.234 50.9531C245.234 46.6094 245.812 42.9531 246.969 39.9844C248.156 37.0156 249.922 34.7656 252.266 33.2344C254.641 31.7031 257.609 30.9375 261.172 30.9375C262.953 30.9375 264.859 31.1875 266.891 31.6875C268.953 32.1875 270.766 32.75 272.328 33.375L274.672 26.8594C273.141 26.0781 271.172 25.4375 268.766 24.9375C266.391 24.4062 263.922 24.1406 261.359 24.1406C256.703 24.1406 252.547 25.0938 248.891 27C245.234 28.9062 242.359 31.8438 240.266 35.8125C238.203 39.75 237.172 44.8281 237.172 51.0469C237.172 56.9844 238.156 61.9062 240.125 65.8125C242.094 69.7188 244.844 72.625 248.375 74.5312ZM306.594 70.6875C305.25 70.9062 303.938 71.0156 302.656 71.0156C300.188 71.0156 298.203 70.2188 296.703 68.625C295.234 67.0312 294.5 64.625 294.5 61.4062V31.1719H309.547V25.0781H294.5V13.1719H289.812L286.719 24.3281L279.359 27.375V31.1719H286.672V61.6406C286.672 65.6719 287.328 68.8281 288.641 71.1094C289.984 73.3906 291.766 75.0156 293.984 75.9844C296.203 76.9219 298.672 77.3906 301.391 77.3906C302.922 77.3906 304.484 77.25 306.078 76.9688C307.703 76.6875 308.969 76.3438 309.875 75.9375V69.8906C309.031 70.2031 307.938 70.4688 306.594 70.6875ZM328.062 76.4531V25.0781H320.281V76.4531H328.062ZM327.547 7.125C326.641 6.28125 325.547 5.85938 324.266 5.85938C322.922 5.85938 321.797 6.28125 320.891 7.125C320.016 7.9375 319.578 9.21875 319.578 10.9688C319.578 12.6875 320.016 13.9688 320.891 14.8125C321.797 15.6562 322.922 16.0781 324.266 16.0781C325.547 16.0781 326.641 15.6562 327.547 14.8125C328.484 13.9688 328.953 12.6875 328.953 10.9688C328.953 9.21875 328.484 7.9375 327.547 7.125ZM336.359 25.0781L355.859 76.4531H364.766L384.312 25.0781H375.969L364.672 56.1562C363.953 58.25 363.156 60.5938 362.281 63.1875C361.406 65.75 360.781 67.8125 360.406 69.375H360.078C359.766 67.8125 359.203 65.75 358.391 63.1875C357.578 60.625 356.781 58.2812 356 56.1562L344.703 25.0781H336.359ZM423.594 27.0469C420.469 25.1094 416.719 24.1406 412.344 24.1406C407.75 24.1406 403.75 25.2344 400.344 27.4219C396.969 29.6094 394.344 32.7344 392.469 36.7969C390.625 40.8281 389.703 45.6094 389.703 51.1406C389.703 56.7969 390.719 61.5781 392.75 65.4844C394.781 69.3906 397.625 72.3594 401.281 74.3906C404.969 76.3906 409.281 77.3906 414.219 77.3906C417.688 77.3906 420.688 77.125 423.219 76.5938C425.781 76.0625 428.359 75.2188 430.953 74.0625V67.2188C428.266 68.375 425.672 69.25 423.172 69.8438C420.672 70.4375 417.797 70.7344 414.547 70.7344C409.266 70.7344 405.172 69.1562 402.266 66C399.359 62.8438 397.859 58.25 397.766 52.2188H433.25V47.3906C433.25 42.7344 432.422 38.6719 430.766 35.2031C429.109 31.7031 426.719 28.9844 423.594 27.0469ZM402.312 34.5938C404.781 31.875 408.094 30.5156 412.25 30.5156C415.188 30.5156 417.594 31.1719 419.469 32.4844C421.344 33.7656 422.734 35.5781 423.641 37.9219C424.578 40.2344 425.062 42.9219 425.094 45.9844H397.906C398.375 41.1094 399.844 37.3125 402.312 34.5938ZM501.781 27.5625C498.906 25.5312 495.297 24.5156 490.953 24.5156C486.141 24.5156 482.078 25.7031 478.766 28.0781C475.484 30.4219 472.984 33.625 471.266 37.6875C469.578 41.75 468.734 46.3281 468.734 51.4219C468.734 56.6406 469.609 61.2031 471.359 65.1094C473.141 69.0156 475.766 72.0469 479.234 74.2031C482.734 76.3281 487.062 77.3906 492.219 77.3906C495.469 77.3906 498.344 77.125 500.844 76.5938C503.344 76.0938 505.844 75.2812 508.344 74.1562V69.7969C505.5 71.0469 502.906 71.9375 500.562 72.4688C498.25 72.9688 495.516 73.2188 492.359 73.2188C486.328 73.2188 481.688 71.3438 478.438 67.5938C475.219 63.8438 473.609 58.4688 473.609 51.4688H510.406V48.0469C510.406 43.4844 509.688 39.4375 508.25 35.9062C506.844 32.375 504.688 29.5938 501.781 27.5625ZM479.047 33.4688C482.078 30.2188 486.031 28.5938 490.906 28.5938C494.219 28.5938 496.938 29.3906 499.062 30.9844C501.219 32.5469 502.828 34.75 503.891 37.5938C504.953 40.4375 505.484 43.7188 505.484 47.4375H473.75C474.281 41.3438 476.047 36.6875 479.047 33.4688ZM531.406 29.4375H543.406V25.5H531.406V19.7344C531.406 15.2656 532.203 12.0469 533.797 10.0781C535.422 8.07812 538.031 7.07812 541.625 7.07812C542.906 7.07812 544.203 7.20312 545.516 7.45312C546.859 7.70312 548.078 8.01562 549.172 8.39062L550.25 4.40625C549.031 4 547.719 3.67188 546.312 3.42188C544.906 3.14062 543.328 3 541.578 3C538.203 3 535.406 3.625 533.188 4.875C531 6.09375 529.359 7.95312 528.266 10.4531C527.203 12.9219 526.672 16.0312 526.672 19.7812V25.4062L517.203 26.625V29.4375H526.672V76.4531H531.406V29.4375ZM560.234 29.4375H572.234V25.5H560.234V19.7344C560.234 15.2656 561.031 12.0469 562.625 10.0781C564.25 8.07812 566.859 7.07812 570.453 7.07812C571.734 7.07812 573.031 7.20312 574.344 7.45312C575.688 7.70312 576.906 8.01562 578 8.39062L579.078 4.40625C577.859 4 576.547 3.67188 575.141 3.42188C573.734 3.14062 572.156 3 570.406 3C567.031 3 564.234 3.625 562.016 4.875C559.828 6.09375 558.188 7.95312 557.094 10.4531C556.031 12.9219 555.5 16.0312 555.5 19.7812V25.4062L546.031 26.625V29.4375H555.5V76.4531H560.234V29.4375ZM622.906 61.6875C623.875 58.4375 624.359 54.8438 624.359 50.9062C624.359 45.7188 623.531 41.1406 621.875 37.1719C620.219 33.2031 617.734 30.1094 614.422 27.8906C611.141 25.6406 607.031 24.5156 602.094 24.5156C597.312 24.5156 593.203 25.5781 589.766 27.7031C586.359 29.7969 583.734 32.8281 581.891 36.7969C580.078 40.7344 579.172 45.4375 579.172 50.9062C579.172 54.875 579.672 58.4844 580.672 61.7344C581.672 64.9531 583.125 67.7344 585.031 70.0781C586.969 72.4219 589.328 74.2344 592.109 75.5156C594.891 76.7656 598.062 77.3906 601.625 77.3906C605.375 77.3906 608.656 76.75 611.469 75.4688C614.312 74.1875 616.688 72.375 618.594 70.0312C620.5 67.6875 621.938 64.9062 622.906 61.6875ZM585.969 62.625C584.688 59.2812 584.047 55.375 584.047 50.9062C584.047 43.9688 585.562 38.5312 588.594 34.5938C591.656 30.6562 596.141 28.6875 602.047 28.6875C606.172 28.6875 609.516 29.6562 612.078 31.5938C614.641 33.5 616.516 36.125 617.703 39.4688C618.891 42.8125 619.484 46.625 619.484 50.9062C619.484 55.3125 618.859 59.2031 617.609 62.5781C616.359 65.9531 614.422 68.5781 611.797 70.4531C609.172 72.3281 605.812 73.2656 601.719 73.2656C597.719 73.2656 594.406 72.3281 591.781 70.4531C589.188 68.5781 587.25 65.9688 585.969 62.625ZM662.516 24.8438C661.328 24.6875 660.062 24.6094 658.719 24.6094C656.125 24.6094 653.812 25.0781 651.781 26.0156C649.75 26.9531 648.016 28.2188 646.578 29.8125C645.172 31.375 644.078 33.1406 643.297 35.1094H643.016L642.547 25.5H638.469V76.4531H643.25V48.3281C643.25 45.3906 643.594 42.7344 644.281 40.3594C644.969 37.9844 645.969 35.9531 647.281 34.2656C648.594 32.5781 650.188 31.2812 652.062 30.375C653.969 29.4688 656.125 29.0156 658.531 29.0156C659.75 29.0156 660.891 29.0938 661.953 29.25C663.016 29.375 664.062 29.5781 665.094 29.8594L665.844 25.5C664.812 25.2188 663.703 25 662.516 24.8438ZM693.688 72.9844C692.438 73.2031 691.078 73.3125 689.609 73.3125C686.516 73.3125 684.281 72.375 682.906 70.5C681.562 68.5938 680.891 65.8125 680.891 62.1562V29.4531H1251.14V25.4531H680.891V13.1719H677.75L676.109 25.1719L668.562 26.625V29.4375H676.156V62.4375C676.156 65.8438 676.641 68.6562 677.609 70.875C678.578 73.0625 680.016 74.7031 681.922 75.7969C683.828 76.8594 686.219 77.3906 689.094 77.3906C690.719 77.3906 692.203 77.25 693.547 76.9688C694.891 76.7188 696.062 76.4219 697.062 76.0781V72.1406C696.094 72.4844 694.969 72.7656 693.688 72.9844Z" fill="url(#paint0_linear_1435_324)"/>
<defs>
<linearGradient id="paint0_linear_1435_324" x1="537.641" y1="120.953" x2="538.866" y2="127.839" gradientUnits="userSpaceOnUse">
<stop offset="0.08" stop-color="#304B5F"/>
<stop offset="0.902371" stop-color="#BB2649"/>
</linearGradient>
</defs>
</svg>
