<svg width="759" height="142" viewBox="0 0 759 142" fill="none" xmlns="http://www.w3.org/2000/svg">
<path fill-rule="evenodd" clip-rule="evenodd" d="M77.4883 24.6035C70.4635 19.1999 59.8994 16.498 45.7959 16.498H16.6973V135H25.0459V86.043H43.2832C50.7402 86.043 57.2516 85.2594 62.8174 83.6924C68.4372 82.1253 73.1113 79.8018 76.8398 76.7217C80.5684 73.6416 83.3512 69.8591 85.1885 65.374C87.0798 60.835 88.0254 55.6475 88.0254 49.8115C88.0254 38.4098 84.513 30.0072 77.4883 24.6035ZM25.0459 23.874H44.9043C56.6842 23.874 65.3841 25.9814 71.0039 30.1963C76.6237 34.3571 79.4336 41.0036 79.4336 50.1357C79.4336 57.3226 77.9476 62.9964 74.9756 67.1572C72.0036 71.318 67.7617 74.29 62.25 76.0732C56.7383 77.8024 50.1458 78.667 42.4727 78.667H25.0459V23.874ZM170.672 109.468C172.347 103.848 173.185 97.6338 173.185 90.8252C173.185 81.8551 171.753 73.9388 168.889 67.0762C166.025 60.2135 161.729 54.864 156.001 51.0274C150.327 47.1368 143.221 45.1914 134.684 45.1914C126.416 45.1914 119.31 47.0286 113.366 50.7031C107.476 54.3236 102.937 59.5651 99.7491 66.4277C96.615 73.2363 95.048 81.3688 95.048 90.8252C95.048 97.6878 95.9126 103.929 97.6417 109.549C99.3709 115.115 101.884 119.924 105.18 123.977C108.53 128.029 112.61 131.163 117.419 133.379C122.228 135.54 127.713 136.621 133.873 136.621C140.358 136.621 146.031 135.513 150.895 133.298C155.812 131.082 159.919 127.948 163.215 123.896C166.511 119.843 168.997 115.034 170.672 109.468ZM106.801 111.089C104.585 105.307 103.478 98.5524 103.478 90.8252C103.478 78.8291 106.098 69.4268 111.34 62.6182C116.636 55.8096 124.39 52.4053 134.603 52.4053C141.735 52.4053 147.517 54.0804 151.948 57.4307C156.379 60.7269 159.622 65.2659 161.675 71.0479C163.728 76.8298 164.755 83.4222 164.755 90.8252C164.755 98.4443 163.674 105.172 161.513 111.008C159.351 116.844 156.001 121.383 151.462 124.625C146.923 127.867 141.114 129.488 134.035 129.488C127.119 129.488 121.391 127.867 116.852 124.625C112.367 121.383 109.016 116.871 106.801 111.089ZM242.483 45.7588C240.43 45.4886 238.241 45.3535 235.918 45.3535C231.433 45.3535 227.434 46.1641 223.922 47.7852C220.409 49.4062 217.41 51.5947 214.925 54.3506C212.493 57.0524 210.602 60.1055 209.251 63.5098H208.764L207.954 46.8936H200.902V135H209.17V86.3672C209.17 81.2878 209.764 76.6947 210.953 72.5879C212.142 68.4811 213.871 64.9688 216.14 62.0508C218.41 59.1328 221.166 56.8903 224.408 55.3232C227.704 53.7562 231.433 52.9727 235.594 52.9727C237.701 52.9727 239.673 53.1077 241.511 53.3779C243.348 53.5941 245.158 53.9453 246.941 54.4316L248.238 46.8936C246.455 46.4072 244.537 46.029 242.483 45.7588ZM301.365 129.002C299.203 129.38 296.853 129.569 294.313 129.569C288.963 129.569 285.1 127.948 282.722 124.706C280.398 121.41 279.237 116.601 279.237 110.278V55H344V47H306.714V46.8936H279.237V25.5762H273.806L270.969 46.3262L257.919 48.839V53.7021H271.05V110.765C271.05 116.655 271.888 121.518 273.563 125.354C275.238 129.137 277.724 131.974 281.02 133.865C284.316 135.702 288.45 136.621 293.421 136.621C296.231 136.621 298.798 136.378 301.121 135.892C303.445 135.459 305.471 134.946 307.201 134.352V127.543C305.525 128.137 303.58 128.624 301.365 129.002Z" fill="#304B5F"/>
</svg>
