<svg width="749" height="70" viewBox="0 0 749 70" fill="none" xmlns="http://www.w3.org/2000/svg">
<path fill-rule="evenodd" clip-rule="evenodd" d="M15.2031 61.3594C18.7344 63.2656 22.8125 64.2188 27.4375 64.2188C30.3438 64.2188 32.8438 63.9844 34.9375 63.5156C37.0625 63.0469 38.9844 62.375 40.7031 61.5V54.5625C38.9219 55.3438 36.9375 56.0312 34.75 56.625C32.5625 57.1875 30.1094 57.4688 27.3906 57.4688C23.9844 57.4688 21.1406 56.7031 18.8594 55.1719C16.6094 53.6094 14.9062 51.3594 13.75 48.4219C12.625 45.4844 12.0625 41.9375 12.0625 37.7812C12.0625 33.4375 12.6406 29.7812 13.7969 26.8125C14.9844 23.8438 16.75 21.5938 19.0938 20.0625C21.4688 18.5312 24.4375 17.7656 28 17.7656C29.7812 17.7656 31.6875 18.0156 33.7188 18.5156C35.7812 19.0156 37.5938 19.5781 39.1562 20.2031L41.5 13.6875C39.9688 12.9062 38 12.2656 35.5938 11.7656C33.2188 11.2344 30.75 10.9688 28.1875 10.9688C23.5312 10.9688 19.375 11.9219 15.7188 13.8281C12.0625 15.7344 9.1875 18.6719 7.09375 22.6406C5.03125 26.5781 4 31.6562 4 37.875C4 43.8125 4.98438 48.7344 6.95312 52.6406C8.92188 56.5469 11.6719 59.4531 15.2031 61.3594ZM102.267 48.7969C103.361 45.4844 103.908 41.7188 103.908 37.5C103.908 31.9062 102.923 27.1406 100.954 23.2031C99.0169 19.2344 96.2825 16.2031 92.7513 14.1094C89.2513 12.0156 85.1575 10.9688 80.47 10.9688C75.5638 10.9688 71.3294 12.0156 67.7669 14.1094C64.2356 16.1719 61.5169 19.1875 59.6106 23.1562C57.7044 27.0938 56.7513 31.875 56.7513 37.5C56.7513 41.7188 57.3138 45.4844 58.4388 48.7969C59.595 52.1094 61.2044 54.9062 63.2669 57.1875C65.3606 59.4688 67.8294 61.2188 70.6731 62.4375C73.5481 63.625 76.7044 64.2188 80.1419 64.2188C83.8294 64.2188 87.1263 63.625 90.0325 62.4375C92.97 61.2188 95.47 59.4688 97.5325 57.1875C99.595 54.9062 101.173 52.1094 102.267 48.7969ZM66.4544 48.2344C65.3606 45.2031 64.8138 41.625 64.8138 37.5C64.8138 31.25 66.0481 26.3594 68.5169 22.8281C71.0169 19.2969 74.9388 17.5312 80.2825 17.5312C83.9075 17.5312 86.8606 18.3438 89.1419 19.9688C91.4231 21.5938 93.1106 23.9062 94.2044 26.9062C95.2981 29.875 95.845 33.4062 95.845 37.5C95.845 41.625 95.2981 45.2031 94.2044 48.2344C93.1106 51.2656 91.4075 53.6094 89.095 55.2656C86.8138 56.9219 83.8919 57.75 80.3294 57.75C76.7356 57.75 73.7981 56.9219 71.5169 55.2656C69.2356 53.6094 67.5481 51.2656 66.4544 48.2344ZM162.237 15.4688C159.112 12.4688 154.503 10.9688 148.409 10.9688C146.096 10.9688 143.893 11.2969 141.799 11.9531C139.706 12.5781 137.815 13.5156 136.128 14.7656C134.44 15.9844 133.049 17.5 131.956 19.3125H131.534L130.362 11.9062H124.081V63.2812H131.862V36.375C131.862 30.25 133.018 25.5781 135.331 22.3594C137.643 19.1406 141.643 17.5312 147.331 17.5312C151.362 17.5312 154.346 18.5938 156.284 20.7188C158.253 22.8438 159.237 26.0469 159.237 30.3281V63.2812H166.924V29.8125C166.924 23.2188 165.362 18.4375 162.237 15.4688ZM227.832 15.4688C224.707 12.4688 220.098 10.9688 214.004 10.9688C211.691 10.9688 209.488 11.2969 207.394 11.9531C205.301 12.5781 203.41 13.5156 201.723 14.7656C200.035 15.9844 198.644 17.5 197.551 19.3125H197.129L195.957 11.9062H189.676V63.2812H197.457V36.375C197.457 30.25 198.613 25.5781 200.926 22.3594C203.238 19.1406 207.238 17.5312 212.926 17.5312C216.957 17.5312 219.941 18.5938 221.879 20.7188C223.848 22.8438 224.832 26.0469 224.832 30.3281V63.2812H232.519V29.8125C232.519 23.2188 230.957 18.4375 227.832 15.4688ZM286.302 13.875C283.177 11.9375 279.427 10.9688 275.052 10.9688C270.458 10.9688 266.458 12.0625 263.052 14.25C259.677 16.4375 257.052 19.5625 255.177 23.625C253.333 27.6562 252.411 32.4375 252.411 37.9688C252.411 43.625 253.427 48.4062 255.458 52.3125C257.489 56.2188 260.333 59.1875 263.989 61.2188C267.677 63.2188 271.989 64.2188 276.927 64.2188C280.396 64.2188 283.396 63.9531 285.927 63.4219C288.489 62.8906 291.068 62.0469 293.661 60.8906V54.0469C290.974 55.2031 288.38 56.0781 285.88 56.6719C283.38 57.2656 280.505 57.5625 277.255 57.5625C271.974 57.5625 267.88 55.9844 264.974 52.8281C262.068 49.6719 260.568 45.0781 260.474 39.0469H295.958V34.2188C295.958 29.5625 295.13 25.5 293.474 22.0312C291.818 18.5312 289.427 15.8125 286.302 13.875ZM265.021 21.4219C267.489 18.7031 270.802 17.3438 274.958 17.3438C277.896 17.3438 280.302 18 282.177 19.3125C284.052 20.5938 285.443 22.4062 286.349 24.75C287.286 27.0625 287.771 29.75 287.802 32.8125H260.614C261.083 27.9375 262.552 24.1406 265.021 21.4219ZM324.241 61.3594C327.772 63.2656 331.85 64.2188 336.475 64.2188C339.381 64.2188 341.881 63.9844 343.975 63.5156C346.1 63.0469 348.022 62.375 349.741 61.5V54.5625C347.959 55.3438 345.975 56.0312 343.788 56.625C341.6 57.1875 339.147 57.4688 336.428 57.4688C333.022 57.4688 330.178 56.7031 327.897 55.1719C325.647 53.6094 323.944 51.3594 322.788 48.4219C321.663 45.4844 321.1 41.9375 321.1 37.7812C321.1 33.4375 321.678 29.7812 322.834 26.8125C324.022 23.8438 325.788 21.5938 328.131 20.0625C330.506 18.5312 333.475 17.7656 337.038 17.7656C338.819 17.7656 340.725 18.0156 342.756 18.5156C344.819 19.0156 346.631 19.5781 348.194 20.2031L350.538 13.6875C349.006 12.9062 347.038 12.2656 344.631 11.7656C342.256 11.2344 339.788 10.9688 337.225 10.9688C332.569 10.9688 328.413 11.9219 324.756 13.8281C321.1 15.7344 318.225 18.6719 316.131 22.6406C314.069 26.5781 313.038 31.6562 313.038 37.875C313.038 43.8125 314.022 48.7344 315.991 52.6406C317.959 56.5469 320.709 59.4531 324.241 61.3594ZM389.179 57.5156C387.836 57.7344 386.523 57.8438 385.242 57.8438C382.773 57.8438 380.789 57.0469 379.289 55.4531C377.82 53.8594 377.086 51.4531 377.086 48.2344V18.2812H748.656V11.2812H377.086V0H372.398L369.304 11.1562L361.945 14.2031V18H369.258V48.4688C369.258 52.5 369.914 55.6562 371.226 57.9375C372.57 60.2188 374.351 61.8438 376.57 62.8125C378.789 63.75 381.258 64.2188 383.976 64.2188C385.508 64.2188 387.07 64.0781 388.664 63.7969C390.289 63.5156 391.554 63.1719 392.461 62.7656V56.7188C391.617 57.0312 390.523 57.2969 389.179 57.5156Z" fill="#F0F0F5"/>
</svg>
