<svg width="22" height="11" viewBox="0 0 22 11" fill="none" xmlns="http://www.w3.org/2000/svg">
<path fill-rule="evenodd" clip-rule="evenodd" d="M17.3993 0.83616C17.8411 0.504801 18.4679 0.594341 18.7992 1.03615L21.7834 5.01501C21.8389 5.08498 21.8839 5.16123 21.9182 5.24141C22.0278 5.49606 22.0245 5.7821 21.9182 6.03038C21.8839 6.11057 21.8389 6.18681 21.7834 6.25679L18.7992 10.2356C18.4679 10.6775 17.8411 10.767 17.3993 10.4356C16.9575 10.1043 16.8679 9.4775 17.1993 9.03569L18.9991 6.63591L0.999962 6.63591C0.447698 6.63591 0 6.18821 0 5.63595C0 5.08368 0.447698 4.63598 0.999962 4.63598L18.9992 4.63598L17.1993 2.23611C16.8679 1.7943 16.9575 1.16752 17.3993 0.83616Z" fill="black"/>
</svg>
