<svg width="22" height="10" viewBox="0 0 22 10" fill="none" xmlns="http://www.w3.org/2000/svg">
<path fill-rule="evenodd" clip-rule="evenodd" d="M4.60071 0.200051C4.1589 -0.131307 3.53212 -0.0417673 3.20076 0.400044L0.216623 4.37889C0.161129 4.4489 0.116051 4.52518 0.0817242 4.6054C-0.0277863 4.85998 -0.0244942 5.14595 0.0817242 5.39418C0.116051 5.4744 0.161129 5.55068 0.216623 5.62069L3.20076 9.59953C3.53212 10.0413 4.1589 10.1309 4.60071 9.79953C5.04252 9.46817 5.13206 8.84139 4.8007 8.39958L3.00086 5.9998L21 5.9998C21.5523 5.9998 22 5.5521 22 4.99984C22 4.44757 21.5523 3.99987 21 3.99987L3.00079 3.99988L4.8007 1.6C5.13206 1.15819 5.04252 0.53141 4.60071 0.200051Z" fill="black"/>
</svg>
