<svg width="21" height="21" viewBox="0 0 21 21" fill="none" xmlns="http://www.w3.org/2000/svg">
   <path fill-rule="evenodd" clip-rule="evenodd"
      d="M2.10622 19.7229C1.72437 20.1048 1.09823 20.0978 0.707709 19.7072C0.317185 19.3167 0.310156 18.6906 0.692009 18.3087L8.97326 10.0275L0.692144 1.74636C0.310291 1.36451 0.31732 0.738373 0.707844 0.347849C1.09837 -0.0426752 1.7245 -0.0497039 2.10636 0.332149L10.3875 8.61326L18.6686 0.332149C19.0504 -0.0497039 19.6766 -0.0426752 20.0671 0.347849C20.4576 0.738373 20.4647 1.36451 20.0828 1.74636L11.8017 10.0275L20.0829 18.3087C20.4648 18.6906 20.4578 19.3167 20.0672 19.7072C19.6767 20.0978 19.0506 20.1048 18.6687 19.7229L10.3875 11.4417L2.10622 19.7229Z"
      fill="#9998EB" />
</svg>