<svg width="80" height="80" viewBox="0 0 80 80" fill="none" xmlns="http://www.w3.org/2000/svg">
<path fill-rule="evenodd" clip-rule="evenodd" d="M40 80C62.0914 80 80 62.0914 80 40C80 17.9086 62.0914 0 40 0C17.9086 0 0 17.9086 0 40C0 62.0914 17.9086 80 40 80ZM55.0113 28.8953H48.3848V24.2568C48.3848 22.6586 47.0596 21.3333 45.4614 21.3333H34.2354C32.6373 21.3333 31.312 22.6586 31.312 24.2568V28.8953H24.6855C22.8535 28.8953 21.3333 30.3765 21.3333 32.2475V51.5811C21.3333 53.4131 22.8145 54.9333 24.6855 54.9333H55.0503C56.8823 54.9333 58.4025 53.4521 58.4025 51.5811V32.2475C58.3635 30.4155 56.8823 28.8953 55.0113 28.8953ZM35.4828 25.5041H44.2141V28.8953H35.4828V25.5041Z" fill="#BAB9CC"/>
</svg>
