<svg width="80" height="80" viewBox="0 0 80 80" fill="none" xmlns="http://www.w3.org/2000/svg">
<path fill-rule="evenodd" clip-rule="evenodd" d="M40 80C62.0914 80 80 62.0914 80 40C80 17.9086 62.0914 0 40 0C17.9086 0 0 17.9086 0 40C0 62.0914 17.9086 80 40 80ZM59.8463 26.3573L55.6444 22.6453C53.6633 20.896 50.4224 20.896 48.4459 22.6453L47.4577 23.516L58.8626 33.5906L59.8463 32.7213C61.8258 30.9706 61.8258 28.108 59.8463 26.3573ZM27.2859 45.5103C27.0143 45.5103 26.7578 45.4169 26.5647 45.2463L25.4648 44.2769C25.0664 43.9249 25.0664 43.3543 25.4648 43.0023L45.6251 25.1823L48.1689 27.4289L28.0086 45.2476C27.817 45.4169 27.5605 45.5103 27.2859 45.5103ZM30.9679 49.1372L29.871 48.1652C29.4727 47.8132 29.4727 47.2426 29.871 46.8906L50.0329 29.0719L52.5767 31.3199L32.4148 49.1372C32.2202 49.3079 31.9637 49.4012 31.6921 49.4012C31.4809 49.4106 31.1625 49.3066 30.9679 49.1372ZM33.9681 51.4159C33.9681 51.1733 34.0737 50.9466 34.2653 50.7773L54.4287 32.9599L56.9725 35.2066L36.8106 53.0253C36.619 53.1959 36.3625 53.2893 36.0879 53.2893C35.8164 53.2893 35.5599 53.1959 35.3683 53.0266L34.2683 52.0546C34.0737 51.8853 33.9711 51.6573 33.9681 51.4159ZM31.3783 51.692C30.5243 51.628 29.7246 51.3173 29.1151 50.7747L28.0152 49.8027C27.3845 49.2453 27.0511 48.5333 26.9771 47.804C26.1232 47.7387 25.3265 47.4293 24.714 46.8867L23.9445 46.2067L21.4112 54.9827C21.0657 56.1827 21.8925 56.9133 23.2505 56.608L33.1828 54.3707L32.4133 53.6907C31.7841 53.136 31.4492 52.4227 31.3783 51.692Z" fill="#BAB9CC"/>
</svg>
