<svg width="80" height="80" viewBox="0 0 80 80" fill="none" xmlns="http://www.w3.org/2000/svg">
<path fill-rule="evenodd" clip-rule="evenodd" d="M40 80C62.0914 80 80 62.0914 80 40C80 17.9086 62.0914 0 40 0C17.9086 0 0 17.9086 0 40C0 62.0914 17.9086 80 40 80ZM41.3333 61.3333C30.2858 61.3333 21.3333 52.3808 21.3333 41.3333C21.3333 30.2883 30.2858 21.3333 41.3333 21.3333C52.3783 21.3333 61.3333 30.2883 61.3333 41.3333C61.3333 52.3808 52.3783 61.3333 41.3333 61.3333ZM42.5883 28.8258L40.1058 28.7996L40.0833 42.5833L53.9721 47.6808L54.9858 45.0121L42.5583 40.2683L42.5883 28.8258Z" fill="#BAB9CC"/>
</svg>
