<svg width="11" height="17" viewBox="0 0 11 17" fill="none" xmlns="http://www.w3.org/2000/svg">
<path d="M9.14285 5.49484L10.4101 2.44709C10.4346 2.38816 10.4444 2.32396 10.4386 2.26023C10.4329 2.1965 10.4117 2.13522 10.3771 2.08185C10.3425 2.02848 10.2955 1.98469 10.2402 1.95437C10.185 1.92405 10.1233 1.90816 10.0605 1.90811H1.32055V1.32648C1.32055 1.22364 1.28051 1.12501 1.20925 1.05229C1.13798 0.979573 1.04133 0.938721 0.940547 0.938721C0.839765 0.938721 0.74311 0.979573 0.671846 1.05229C0.600583 1.12501 0.560547 1.22364 0.560547 1.32648V16.0612C0.560547 16.164 0.600583 16.2626 0.671846 16.3354C0.74311 16.4081 0.839765 16.4489 0.940547 16.4489C1.04133 16.4489 1.13798 16.4081 1.20925 16.3354C1.28051 16.2626 1.32055 16.164 1.32055 16.0612V9.08158H10.0605C10.1233 9.08153 10.185 9.06563 10.2402 9.03532C10.2955 9.005 10.3425 8.96121 10.3771 8.90784C10.4117 8.85447 10.4329 8.79318 10.4386 8.72945C10.4444 8.66572 10.4346 8.60153 10.4101 8.5426L9.14285 5.49484Z" fill="white"/>
</svg>
