<svg width="80" height="80" viewBox="0 0 80 80" fill="none" xmlns="http://www.w3.org/2000/svg">
<path fill-rule="evenodd" clip-rule="evenodd" d="M40 80C62.0914 80 80 62.0914 80 40C80 17.9086 62.0914 0 40 0C17.9086 0 0 17.9086 0 40C0 62.0914 17.9086 80 40 80ZM58.7319 30.0881C59.3974 29.7021 59.3961 28.7405 58.7294 28.3565L41.6941 18.5427C41.3847 18.3644 41.0036 18.3647 40.6944 18.5435L23.7591 28.3352C23.0858 28.7244 23.0951 29.6995 23.7756 30.0759L41.1811 39.7045C41.4886 39.8746 41.8628 39.8708 42.1668 39.6945L58.7319 30.0881ZM61.3305 32.8689C61.3305 32.1023 60.5034 31.6208 59.8367 31.9993L42.5264 41.8292C42.2135 42.0068 42.0202 42.3389 42.0202 42.6987V62.3988C42.0202 63.1654 42.8473 63.6469 43.514 63.2683L60.8243 53.4385C61.1372 53.2609 61.3305 52.9288 61.3305 52.569V32.8689ZM39.4608 41.8265C39.766 42.0063 39.9534 42.334 39.9534 42.6882V62.3672C39.9534 63.1408 39.1126 63.6215 38.4459 63.2289L21.8252 53.4412C21.52 53.2614 21.3327 52.9337 21.3327 52.5795V32.9005C21.3327 32.1269 22.1735 31.6462 22.8401 32.0388L39.4608 41.8265Z" fill="#BAB9CC"/>
</svg>
