<svg width="80" height="80" viewBox="0 0 80 80" fill="none" xmlns="http://www.w3.org/2000/svg">
<path fill-rule="evenodd" clip-rule="evenodd" d="M8 0C3.58172 0 0 3.58172 0 8V72C0 76.4183 3.58172 80 8 80H72C76.4183 80 80 76.4183 80 72V8C80 3.58172 76.4183 0 72 0H8ZM15.5695 31.4402H26.0088V65.2636H15.5695V31.4402ZM20.998 14.7373C24.3386 14.7373 27.2616 17.6603 27.2616 21.0009C27.2616 24.3415 24.3386 27.2645 20.998 27.2645C17.2398 26.8469 14.7344 24.3415 14.7344 21.0009C14.7344 17.6603 17.2398 14.7373 20.998 14.7373ZM32.6914 31.4399H42.7132V36.0332C43.9659 33.5277 47.724 30.6047 52.7349 30.6047C63.1742 30.6047 65.2621 37.7035 65.2621 46.4725V64.8457H54.8228V48.5604C54.8228 44.8022 54.8228 39.7913 49.3943 39.7913C43.9659 39.7913 43.1307 43.9671 43.1307 48.5604V65.2633H32.6914V31.4399Z" fill="#F9F9FC"/>
</svg>
