<svg width="80" height="80" viewBox="0 0 80 80" fill="none" xmlns="http://www.w3.org/2000/svg">
<path fill-rule="evenodd" clip-rule="evenodd" d="M8 0C3.58172 0 0 3.58172 0 8V72C0 76.4183 3.58172 80 8 80H72C76.4183 80 80 76.4183 80 72V8C80 3.58172 76.4183 0 72 0H8ZM17.0832 25.5094C17.5003 25.3495 17.9554 25.2627 18.4311 25.2627H61.5636C62.0394 25.2627 62.4945 25.3495 62.9115 25.5094L41.2875 43.6143C40.5083 44.2657 39.5271 44.2664 38.7458 43.6143L17.0832 25.5094ZM14.7344 28.9064C14.7344 28.7274 14.7473 28.547 14.7726 28.3751H14.7729L30.0618 41.1282L15.0232 54.6404C14.8323 54.2 14.7344 53.7088 14.7344 53.1981V28.9064ZM49.9718 41.1092L65.2222 28.3751H65.2225C65.2471 28.547 65.2607 28.7274 65.2607 28.9064V53.1981C65.2607 53.7088 65.1627 54.2 64.9718 54.6404L49.9718 41.1092ZM43.6752 46.385L47.1412 43.4814L61.9295 56.8228C61.811 56.8337 61.6853 56.8416 61.5636 56.8416H18.4311C18.3159 56.8416 18.1971 56.8325 18.0845 56.8228L32.9113 43.5004L36.3581 46.385C38.4595 48.1393 41.5736 48.1424 43.6752 46.385Z" fill="#F9F9FC"/>
</svg>
