<svg width="80" height="80" viewBox="0 0 80 80" fill="none" xmlns="http://www.w3.org/2000/svg">
<path fill-rule="evenodd" clip-rule="evenodd" d="M40 80C62.0914 80 80 62.0914 80 40C80 17.9086 62.0914 0 40 0C17.9086 0 0 17.9086 0 40C0 62.0914 17.9086 80 40 80ZM36.2018 19.7955C36.2018 17.7014 37.9032 16 39.9972 16C42.0913 16 43.7927 17.7014 43.7927 19.7955V20.2444H44.6341C46.8685 20.2444 48.682 22.0672 48.682 24.3015C48.682 24.8156 48.2707 25.2362 47.7472 25.2362H32.2473C31.7332 25.2362 31.3125 24.8156 31.3125 24.3015C31.3125 22.0672 33.1261 20.2444 35.3604 20.2444H36.2018V19.7955ZM24 24.3014C24 23.7779 24.4206 23.3665 24.9348 23.3665H29.525C29.4689 23.6658 29.4408 23.9837 29.4408 24.3014C29.4408 25.844 30.7029 27.106 32.2454 27.106H47.7453C49.2878 27.106 50.5498 25.844 50.5498 24.3014C50.5498 23.9837 50.5217 23.6658 50.4657 23.3665H55.0652C55.5794 23.3665 56 23.7779 56 24.3014V61.8078C56 62.3221 55.5794 62.7427 55.0652 62.7427H24.9348C24.4206 62.7427 24 62.3221 24 61.8078V24.3014Z" fill="#BAB9CC"/>
</svg>
