<svg width="80" height="80" viewBox="0 0 80 80" fill="none" xmlns="http://www.w3.org/2000/svg">
<path fill-rule="evenodd" clip-rule="evenodd" d="M40 80C62.0914 80 80 62.0914 80 40C80 17.9086 62.0914 0 40 0C17.9086 0 0 17.9086 0 40C0 62.0914 17.9086 80 40 80ZM40.1282 39.5389C45.8162 39.5389 50.4654 34.8402 50.4654 29.1028C50.4654 23.3654 45.8162 18.6667 40.1282 18.6667C34.4403 18.6667 29.791 23.3654 29.791 29.1028C29.791 34.8402 34.4403 39.5389 40.1282 39.5389ZM46.0134 40.8249H34.2418C27.1195 40.8249 21.3327 46.6612 21.3327 53.8824V60.2133H58.9225V53.8824C58.9225 46.6612 53.1357 40.8249 46.0134 40.8249Z" fill="#BAB9CC"/>
</svg>
