<svg width="80" height="80" viewBox="0 0 80 80" fill="none" xmlns="http://www.w3.org/2000/svg">
<path fill-rule="evenodd" clip-rule="evenodd" d="M40 80C62.0914 80 80 62.0914 80 40C80 17.9086 62.0914 0 40 0C17.9086 0 0 17.9086 0 40C0 62.0914 17.9086 80 40 80ZM42.8014 31.6927C42.8014 35.9219 39.3744 39.3854 35.1816 39.3854C30.9889 39.3854 27.5618 35.9219 27.5618 31.6927C27.5618 27.4635 30.9889 24 35.1816 24C39.3744 24 42.8014 27.4635 42.8014 31.6927ZM30.8483 40.3333H39.5254C41.1759 40.3333 42.7291 40.7585 44.0831 41.507C45.17 39.6656 47.1599 38.4342 49.4315 38.4342H55.1075C58.5417 38.4342 61.332 41.2484 61.332 44.7303V47.7829H48.7972C48.9567 48.4818 49.041 49.21 49.041 49.9583V54.625H21.3327V49.9583C21.3327 44.6354 25.5983 40.3333 30.8483 40.3333ZM57.2591 32.7821C57.2591 35.5485 55.0173 37.8141 52.2747 37.8141C49.5321 37.8141 47.2904 35.5485 47.2904 32.7821C47.2904 30.0156 49.5321 27.75 52.2747 27.75C55.0173 27.75 57.2591 30.0156 57.2591 32.7821Z" fill="#BAB9CC"/>
</svg>
