<svg width="33" height="32" viewBox="0 0 33 32" fill="none" xmlns="http://www.w3.org/2000/svg">
<path fill-rule="evenodd" clip-rule="evenodd" d="M28.5001 26.3344C28.5001 27.0603 27.9043 27.6667 27.1455 27.6667H5.85466C5.09532 27.6667 4.50008 27.0598 4.50008 26.3344V4.99897C4.50008 4.27413 5.09637 3.66671 5.85466 3.66671H27.1455C27.9048 3.66671 28.5001 4.27363 28.5001 4.99897V26.3344ZM29.8334 26.3344C29.8334 27.8075 28.6298 29 27.1455 29H5.85466C4.36879 29 3.16675 27.806 3.16675 26.3344V4.99897C3.16675 3.52745 4.37034 2.33337 5.85466 2.33337H27.1455C28.6314 2.33337 29.8334 3.52745 29.8334 4.99897V26.3344ZM17.3516 19.542L22.382 15.1403C22.6591 14.8979 23.0803 14.9259 23.3228 15.203C23.5652 15.4801 23.5371 15.9013 23.26 16.1437L16.6851 21.8969L10.1099 16.1437C9.83281 15.9013 9.80473 15.4801 10.0472 15.203C10.2896 14.9259 10.7108 14.8979 10.9879 15.1403L16.0183 19.5419L16.0183 7.66345C16.0183 7.29526 16.3168 6.99679 16.685 6.99679C17.0532 6.99679 17.3516 7.29526 17.3516 7.66345L17.3516 19.542ZM7.34251 23.7556C7.34251 23.3874 7.64099 23.0889 8.00918 23.0889H24.9916C25.3598 23.0889 25.6583 23.3874 25.6583 23.7556C25.6583 24.1238 25.3598 24.4222 24.9916 24.4222H8.00918C7.64099 24.4222 7.34251 24.1238 7.34251 23.7556Z" fill="black"/>
</svg>
