<svg width="749" height="70" viewBox="0 0 749 70" fill="none" xmlns="http://www.w3.org/2000/svg">
<g clip-path="url(#clip0_1453_304)">
<path d="M217.911 55.4688C217.911 58.75 217.083 61.5156 215.427 63.7656C213.802 65.9844 211.458 67.6562 208.396 68.7812C205.364 69.9062 201.739 70.4688 197.521 70.4688C193.927 70.4688 190.817 70.1875 188.192 69.625C185.567 69.0625 183.271 68.2656 181.302 67.2344V60.0625C183.396 61.0938 185.896 62.0312 188.802 62.875C191.708 63.7188 194.677 64.1406 197.708 64.1406C202.146 64.1406 205.364 63.4219 207.364 61.9844C209.364 60.5469 210.364 58.5938 210.364 56.125C210.364 54.7188 209.958 53.4844 209.146 52.4219C208.364 51.3281 207.036 50.2812 205.161 49.2812C203.286 48.25 200.692 47.125 197.38 45.9062C194.099 44.6562 191.255 43.4219 188.849 42.2031C186.474 40.9531 184.63 39.4375 183.317 37.6562C182.036 35.875 181.396 33.5625 181.396 30.7188C181.396 26.375 183.146 23.0469 186.646 20.7344C190.177 18.3906 194.802 17.2188 200.521 17.2188C203.614 17.2188 206.505 17.5312 209.192 18.1562C211.911 18.75 214.442 19.5625 216.786 20.5938L214.161 26.8281C212.036 25.9219 209.771 25.1562 207.364 24.5312C204.958 23.9062 202.505 23.5938 200.005 23.5938C196.411 23.5938 193.646 24.1875 191.708 25.375C189.802 26.5625 188.849 28.1875 188.849 30.25C188.849 31.8438 189.286 33.1562 190.161 34.1875C191.067 35.2188 192.505 36.1875 194.474 37.0938C196.442 38 199.036 39.0625 202.255 40.2812C205.474 41.4688 208.255 42.7031 210.599 43.9844C212.942 45.2344 214.739 46.7656 215.989 48.5781C217.271 50.3594 217.911 52.6562 217.911 55.4688Z" fill="#F0F0F5"/>
<path d="M167.785 1L168.488 2.03125C167.926 4.3125 167.207 6.76562 166.332 9.39062C165.457 11.9844 164.504 14.5781 163.473 17.1719C162.441 19.7656 161.41 22.2031 160.379 24.4844H154.66C155.129 22.7031 155.598 20.7969 156.066 18.7656C156.566 16.7344 157.035 14.6719 157.473 12.5781C157.91 10.4844 158.301 8.45312 158.645 6.48438C159.02 4.51562 159.332 2.6875 159.582 1H167.785Z" fill="#F0F0F5"/>
<path d="M137.299 64.0938C138.581 64.0938 139.893 63.9844 141.237 63.7656C142.581 63.5469 143.674 63.2812 144.518 62.9688V69.0156C143.612 69.4219 142.346 69.7656 140.721 70.0469C139.127 70.3281 137.565 70.4688 136.034 70.4688C133.315 70.4688 130.846 70 128.627 69.0625C126.409 68.0938 124.627 66.4688 123.284 64.1875C121.971 61.9062 121.315 58.75 121.315 54.7188V24.25H114.002V20.4531L121.362 17.4062L124.456 6.25H129.143V18.1562H144.19V24.25H129.143V54.4844C129.143 57.7031 129.877 60.1094 131.346 61.7031C132.846 63.2969 134.831 64.0938 137.299 64.0938Z" fill="#F0F0F5"/>
<path d="M79.8608 17.2188C84.2358 17.2188 87.9858 18.1875 91.1108 20.125C94.2358 22.0625 96.6265 24.7812 98.2827 28.2812C99.939 31.75 100.767 35.8125 100.767 40.4688V45.2969H65.2827C65.3765 51.3281 66.8765 55.9219 69.7827 59.0781C72.689 62.2344 76.7827 63.8125 82.064 63.8125C85.314 63.8125 88.189 63.5156 90.689 62.9219C93.189 62.3281 95.7827 61.4531 98.4702 60.2969V67.1406C95.8765 68.2969 93.2983 69.1406 90.7358 69.6719C88.2046 70.2031 85.2046 70.4688 81.7358 70.4688C76.7983 70.4688 72.4858 69.4688 68.7983 67.4688C65.1421 65.4375 62.2983 62.4688 60.2671 58.5625C58.2358 54.6562 57.2202 49.875 57.2202 44.2188C57.2202 38.6875 58.1421 33.9062 59.9858 29.875C61.8608 25.8125 64.4858 22.6875 67.8608 20.5C71.2671 18.3125 75.2671 17.2188 79.8608 17.2188ZM79.7671 23.5938C75.6108 23.5938 72.2983 24.9531 69.8296 27.6719C67.3608 30.3906 65.8921 34.1875 65.4233 39.0625H92.6108C92.5796 36 92.0952 33.3125 91.1577 31C90.2515 28.6562 88.8608 26.8438 86.9858 25.5625C85.1108 24.25 82.7046 23.5938 79.7671 23.5938Z" fill="#F0F0F5"/>
<path d="M4.375 69.5312V1H12.3438V62.4062H42.7656V69.5312H4.375Z" fill="#F0F0F5"/>
</g>
<defs>
<clipPath id="clip0_1453_304">
<rect width="749" height="70" fill="white"/>
</clipPath>
</defs>
</svg>
