<svg width="24" height="25" viewBox="0 0 24 25" fill="none" xmlns="http://www.w3.org/2000/svg">
<path fill-rule="evenodd" clip-rule="evenodd" d="M21 20.5008C21 21.0452 20.5532 21.5 19.9841 21.5H4.01594C3.44643 21.5 3 21.0448 3 20.5008V4.4992C3 3.95557 3.44722 3.5 4.01594 3.5H19.9841C20.5536 3.5 21 3.9552 21 4.4992V20.5008ZM22 20.5008C22 21.6056 21.0973 22.5 19.9841 22.5H4.01594C2.90153 22.5 2 21.6044 2 20.5008V4.4992C2 3.39556 2.90269 2.5 4.01594 2.5H19.9841C21.0985 2.5 22 3.39556 22 4.4992V20.5008ZM8.50625 7.39042C8.50625 8.12503 7.95719 8.72053 7.05449 8.72053C6.20531 8.72053 5.65625 8.12503 5.65625 7.39042C5.65625 6.65581 6.22276 6.0603 7.09055 6.0603C7.95835 6.0603 8.4888 6.63741 8.50625 7.39042ZM5.72721 18.3245V9.76899H8.41784V18.3245H5.72721ZM10.0275 12.4983C10.0275 11.4315 9.9926 10.5394 9.95654 9.76914H12.2935L12.418 10.959H12.4715C12.8252 10.3991 13.6929 9.57715 15.1447 9.57715C16.9152 9.57715 18.2425 10.7498 18.2425 13.2686V18.3246H15.5518V13.5836C15.5518 12.4811 15.1621 11.7292 14.1885 11.7292C13.4452 11.7292 13.0031 12.2362 12.8077 12.726C12.7367 12.9007 12.7193 13.1456 12.7193 13.3904V18.3235H10.0287V12.4972L10.0275 12.4983Z" fill="#8DF2FD"/>
</svg>
