<svg width="1272" height="80" viewBox="0 0 1272 80" fill="none" xmlns="http://www.w3.org/2000/svg">
<path d="M909.062 24.625C915.156 24.625 919.766 26.125 922.891 29.125C926.016 32.0938 927.578 36.875 927.578 43.4688V76.9375H919.891V43.9844C919.891 39.7031 918.906 36.5 916.938 34.375C915 32.25 912.016 31.1875 907.984 31.1875C902.297 31.1875 898.297 32.7969 895.984 36.0156C893.672 39.2344 892.516 43.9062 892.516 50.0312V76.9375H884.734V25.5625H891.016L892.188 32.9688H892.609C893.703 31.1562 895.094 29.6406 896.781 28.4219C898.469 27.1719 900.359 26.2344 902.453 25.6094C904.547 24.9531 906.75 24.625 909.062 24.625Z" fill="#BB2649"/>
<path d="M871.281 51.1562C871.281 55.375 870.734 59.1406 869.641 62.4531C868.547 65.7656 866.969 68.5625 864.906 70.8438C862.844 73.125 860.344 74.875 857.406 76.0938C854.5 77.2812 851.203 77.875 847.516 77.875C844.078 77.875 840.922 77.2812 838.047 76.0938C835.203 74.875 832.734 73.125 830.641 70.8438C828.578 68.5625 826.969 65.7656 825.812 62.4531C824.688 59.1406 824.125 55.375 824.125 51.1562C824.125 45.5312 825.078 40.75 826.984 36.8125C828.891 32.8438 831.609 29.8281 835.141 27.7656C838.703 25.6719 842.938 24.625 847.844 24.625C852.531 24.625 856.625 25.6719 860.125 27.7656C863.656 29.8594 866.391 32.8906 868.328 36.8594C870.297 40.7969 871.281 45.5625 871.281 51.1562ZM832.188 51.1562C832.188 55.2812 832.734 58.8594 833.828 61.8906C834.922 64.9219 836.609 67.2656 838.891 68.9219C841.172 70.5781 844.109 71.4062 847.703 71.4062C851.266 71.4062 854.188 70.5781 856.469 68.9219C858.781 67.2656 860.484 64.9219 861.578 61.8906C862.672 58.8594 863.219 55.2812 863.219 51.1562C863.219 47.0625 862.672 43.5312 861.578 40.5625C860.484 37.5625 858.797 35.25 856.516 33.625C854.234 32 851.281 31.1875 847.656 31.1875C842.312 31.1875 838.391 32.9531 835.891 36.4844C833.422 40.0156 832.188 44.9062 832.188 51.1562Z" fill="#BB2649"/>
<path d="M810.484 25.5625V76.9375H802.703V25.5625H810.484ZM806.688 6.34375C807.969 6.34375 809.062 6.76562 809.969 7.60938C810.906 8.42188 811.375 9.70312 811.375 11.4531C811.375 13.1719 810.906 14.4531 809.969 15.2969C809.062 16.1406 807.969 16.5625 806.688 16.5625C805.344 16.5625 804.219 16.1406 803.312 15.2969C802.438 14.4531 802 13.1719 802 11.4531C802 9.70312 802.438 8.42188 803.312 7.60938C804.219 6.76562 805.344 6.34375 806.688 6.34375Z" fill="#BB2649"/>
<path d="M785.078 71.5C786.359 71.5 787.672 71.3906 789.016 71.1719C790.359 70.9531 791.453 70.6875 792.297 70.375V76.4219C791.391 76.8281 790.125 77.1719 788.5 77.4531C786.906 77.7344 785.344 77.875 783.812 77.875C781.094 77.875 778.625 77.4062 776.406 76.4688C774.188 75.5 772.406 73.875 771.062 71.5938C769.75 69.3125 769.094 66.1562 769.094 62.125V31.6562H761.781V27.8594L769.141 24.8125L772.234 13.6562H776.922V25.5625H791.969V31.6562H776.922V61.8906C776.922 65.1094 777.656 67.5156 779.125 69.1094C780.625 70.7031 782.609 71.5 785.078 71.5Z" fill="#BB2649"/>
<path d="M743.031 77.875C738.406 77.875 734.328 76.9219 730.797 75.0156C727.266 73.1094 724.516 70.2031 722.547 66.2969C720.578 62.3906 719.594 57.4688 719.594 51.5312C719.594 45.3125 720.625 40.2344 722.688 36.2969C724.781 32.3281 727.656 29.3906 731.312 27.4844C734.969 25.5781 739.125 24.625 743.781 24.625C746.344 24.625 748.812 24.8906 751.188 25.4219C753.594 25.9219 755.562 26.5625 757.094 27.3438L754.75 33.8594C753.188 33.2344 751.375 32.6719 749.312 32.1719C747.281 31.6719 745.375 31.4219 743.594 31.4219C740.031 31.4219 737.062 32.1875 734.688 33.7188C732.344 35.25 730.578 37.5 729.391 40.4688C728.234 43.4375 727.656 47.0938 727.656 51.4375C727.656 55.5938 728.219 59.1406 729.344 62.0781C730.5 65.0156 732.203 67.2656 734.453 68.8281C736.734 70.3594 739.578 71.125 742.984 71.125C745.703 71.125 748.156 70.8438 750.344 70.2812C752.531 69.6875 754.516 69 756.297 68.2188V75.1562C754.578 76.0312 752.656 76.7031 750.531 77.1719C748.438 77.6406 745.938 77.875 743.031 77.875Z" fill="#BB2649"/>
<path d="M688.328 24.7188C694.453 24.7188 699 26.0938 701.969 28.8438C704.938 31.5938 706.422 35.9844 706.422 42.0156V76.9375H700.75L699.25 69.3438H698.875C697.438 71.2188 695.938 72.7969 694.375 74.0781C692.812 75.3281 691 76.2812 688.938 76.9375C686.906 77.5625 684.406 77.875 681.438 77.875C678.312 77.875 675.531 77.3281 673.094 76.2344C670.688 75.1406 668.781 73.4844 667.375 71.2656C666 69.0469 665.312 66.2344 665.312 62.8281C665.312 57.7031 667.344 53.7656 671.406 51.0156C675.469 48.2656 681.656 46.7656 689.969 46.5156L698.828 46.1406V43C698.828 38.5625 697.875 35.4531 695.969 33.6719C694.062 31.8906 691.375 31 687.906 31C685.219 31 682.656 31.3906 680.219 32.1719C677.781 32.9531 675.469 33.875 673.281 34.9375L670.891 29.0312C673.203 27.8438 675.859 26.8281 678.859 25.9844C681.859 25.1406 685.016 24.7188 688.328 24.7188ZM698.734 51.625L690.906 51.9531C684.5 52.2031 679.984 53.25 677.359 55.0938C674.734 56.9375 673.422 59.5469 673.422 62.9219C673.422 65.8594 674.312 68.0312 676.094 69.4375C677.875 70.8438 680.234 71.5469 683.172 71.5469C687.734 71.5469 691.469 70.2812 694.375 67.75C697.281 65.2188 698.734 61.4219 698.734 56.3594V51.625Z" fill="#BB2649"/>
<path d="M627.484 76.9375H622.703V4H627.484V76.9375Z" fill="#304B5F"/>
<path d="M589.562 25.0938C595.156 25.0938 599.344 26.5 602.125 29.3125C604.906 32.125 606.297 36.6094 606.297 42.7656V76.9375H602.641L601.797 68.0312H601.516C600.422 69.9375 599.094 71.6406 597.531 73.1406C595.969 74.6094 594.047 75.7656 591.766 76.6094C589.516 77.4531 586.766 77.875 583.516 77.875C580.234 77.875 577.422 77.3281 575.078 76.2344C572.766 75.1406 570.969 73.5469 569.688 71.4531C568.438 69.3594 567.812 66.8125 567.812 63.8125C567.812 58.75 569.906 54.9062 574.094 52.2812C578.281 49.625 584.297 48.125 592.141 47.7812L601.609 47.3125V43.6094C601.609 38.3906 600.578 34.6719 598.516 32.4531C596.453 30.2344 593.406 29.125 589.375 29.125C586.75 29.125 584.219 29.4688 581.781 30.1562C579.375 30.8125 576.922 31.7656 574.422 33.0156L572.922 29.0781C575.359 27.9219 577.969 26.9688 580.75 26.2188C583.562 25.4688 586.5 25.0938 589.562 25.0938ZM601.562 51.0156L592.656 51.3906C586.188 51.7031 581.266 52.8594 577.891 54.8594C574.516 56.8594 572.828 59.8594 572.828 63.8594C572.828 67.0781 573.828 69.5469 575.828 71.2656C577.859 72.9844 580.672 73.8438 584.266 73.8438C589.859 73.8438 594.125 72.25 597.062 69.0625C600.031 65.875 601.531 61.5312 601.562 56.0312V51.0156Z" fill="#304B5F"/>
<path d="M554.641 25.9844V76.9375H550.797L550.094 67.75H549.812C548.938 69.625 547.703 71.3281 546.109 72.8594C544.516 74.3906 542.562 75.6094 540.25 76.5156C537.938 77.4219 535.25 77.875 532.188 77.875C528.281 77.875 525 77.2031 522.344 75.8594C519.719 74.4844 517.734 72.4219 516.391 69.6719C515.047 66.9219 514.375 63.4844 514.375 59.3594V25.9844H519.109V58.8906C519.109 63.9844 520.25 67.7344 522.531 70.1406C524.844 72.5469 528.219 73.75 532.656 73.75C536.406 73.75 539.547 73.0312 542.078 71.5938C544.641 70.1562 546.578 67.9844 547.891 65.0781C549.234 62.1406 549.906 58.4844 549.906 54.1094V25.9844H554.641Z" fill="#304B5F"/>
<path d="M476.312 77.875C469.344 77.875 464.031 75.6875 460.375 71.3125C456.75 66.9062 454.938 60.5 454.938 52.0938C454.938 43.2812 456.859 36.5625 460.703 31.9375C464.547 27.3125 469.906 25 476.781 25C479.719 25 482.266 25.4531 484.422 26.3594C486.609 27.2656 488.438 28.5 489.906 30.0625C491.406 31.5938 492.562 33.3438 493.375 35.3125H493.75C493.625 33.6562 493.531 31.875 493.469 29.9688C493.406 28.0625 493.375 26.3125 493.375 24.7188V4H498.109V76.9375H494.266L493.656 67.6094H493.375C492.531 69.4844 491.359 71.2031 489.859 72.7656C488.391 74.3281 486.547 75.5781 484.328 76.5156C482.109 77.4219 479.438 77.875 476.312 77.875ZM476.828 73.75C482.828 73.75 487.094 71.8906 489.625 68.1719C492.156 64.4219 493.422 59.0781 493.422 52.1406V51.3906C493.422 44.2031 492.156 38.7031 489.625 34.8906C487.094 31.0469 482.969 29.125 477.25 29.125C471.594 29.125 467.266 31.0938 464.266 35.0312C461.297 38.9688 459.812 44.6875 459.812 52.1875C459.812 59.25 461.203 64.6094 463.984 68.2656C466.797 71.9219 471.078 73.75 476.828 73.75Z" fill="#304B5F"/>
<path d="M440.828 25.9844V76.9375H436.094V25.9844H440.828ZM438.531 7.14062C439.719 7.14062 440.594 7.5 441.156 8.21875C441.719 8.90625 442 9.84375 442 11.0312C442 12.2188 441.719 13.1562 441.156 13.8438C440.594 14.5312 439.719 14.875 438.531 14.875C437.406 14.875 436.562 14.5312 436 13.8438C435.438 13.1562 435.156 12.2188 435.156 11.0312C435.156 9.84375 435.438 8.90625 436 8.21875C436.562 7.5 437.406 7.14062 438.531 7.14062Z" fill="#304B5F"/>
<path d="M403.047 76.9375L383.5 25.9844H388.516L401.594 60.7188C402.406 62.8125 403.125 64.8281 403.75 66.7656C404.406 68.6719 404.953 70.4062 405.391 71.9688H405.625C406.125 70.4062 406.688 68.6562 407.312 66.7188C407.969 64.7812 408.688 62.7812 409.469 60.7188L422.547 25.9844H427.609L408.016 76.9375H403.047Z" fill="#304B5F"/>
<path d="M374.922 25.9844V76.9375H370.188V25.9844H374.922ZM372.625 7.14062C373.812 7.14062 374.688 7.5 375.25 8.21875C375.812 8.90625 376.094 9.84375 376.094 11.0312C376.094 12.2188 375.812 13.1562 375.25 13.8438C374.688 14.5312 373.812 14.875 372.625 14.875C371.5 14.875 370.656 14.5312 370.094 13.8438C369.531 13.1562 369.25 12.2188 369.25 11.0312C369.25 9.84375 369.531 8.90625 370.094 8.21875C370.656 7.5 371.5 7.14062 372.625 7.14062Z" fill="#304B5F"/>
<path d="M331.469 77.875C324.5 77.875 319.188 75.6875 315.531 71.3125C311.906 66.9062 310.094 60.5 310.094 52.0938C310.094 43.2812 312.016 36.5625 315.859 31.9375C319.703 27.3125 325.062 25 331.938 25C334.875 25 337.422 25.4531 339.578 26.3594C341.766 27.2656 343.594 28.5 345.062 30.0625C346.562 31.5938 347.719 33.3438 348.531 35.3125H348.906C348.781 33.6562 348.688 31.875 348.625 29.9688C348.562 28.0625 348.531 26.3125 348.531 24.7188V4H353.266V76.9375H349.422L348.812 67.6094H348.531C347.688 69.4844 346.516 71.2031 345.016 72.7656C343.547 74.3281 341.703 75.5781 339.484 76.5156C337.266 77.4219 334.594 77.875 331.469 77.875ZM331.984 73.75C337.984 73.75 342.25 71.8906 344.781 68.1719C347.312 64.4219 348.578 59.0781 348.578 52.1406V51.3906C348.578 44.2031 347.312 38.7031 344.781 34.8906C342.25 31.0469 338.125 29.125 332.406 29.125C326.75 29.125 322.422 31.0938 319.422 35.0312C316.453 38.9688 314.969 44.6875 314.969 52.1875C314.969 59.25 316.359 64.6094 319.141 68.2656C321.953 71.9219 326.234 73.75 331.984 73.75Z" fill="#304B5F"/>
<path d="M278.734 25C284.453 25 288.844 26.5 291.906 29.5C294.969 32.5 296.5 37.2031 296.5 43.6094V76.9375H291.812V43.8906C291.812 38.8281 290.656 35.1094 288.344 32.7344C286.031 30.3594 282.672 29.1719 278.266 29.1719C272.672 29.1719 268.391 30.8125 265.422 34.0938C262.484 37.3438 261.016 42.2656 261.016 48.8594V76.9375H256.281V25.9844H260.125L260.828 35.2656H261.109C262.016 33.3594 263.25 31.6406 264.812 30.1094C266.406 28.5469 268.359 27.3125 270.672 26.4062C272.984 25.4688 275.672 25 278.734 25Z" fill="#304B5F"/>
<path d="M239.266 25.9844V76.9375H234.531V25.9844H239.266ZM236.969 7.14062C238.156 7.14062 239.031 7.5 239.594 8.21875C240.156 8.90625 240.438 9.84375 240.438 11.0312C240.438 12.2188 240.156 13.1562 239.594 13.8438C239.031 14.5312 238.156 14.875 236.969 14.875C235.844 14.875 235 14.5312 234.438 13.8438C233.875 13.1562 233.594 12.2188 233.594 11.0312C233.594 9.84375 233.875 8.90625 234.438 8.21875C235 7.5 235.844 7.14062 236.969 7.14062Z" fill="#304B5F"/>
<path d="M192.484 25.0938C193.828 25.0938 195.094 25.1719 196.281 25.3281C197.469 25.4844 198.578 25.7031 199.609 25.9844L198.859 30.3438C197.828 30.0625 196.781 29.8594 195.719 29.7344C194.656 29.5781 193.516 29.5 192.297 29.5C189.891 29.5 187.734 29.9531 185.828 30.8594C183.953 31.7656 182.359 33.0625 181.047 34.75C179.734 36.4375 178.734 38.4688 178.047 40.8438C177.359 43.2188 177.016 45.875 177.016 48.8125V76.9375H172.234V25.9844H176.312L176.781 35.5938H177.062C177.844 33.625 178.938 31.8594 180.344 30.2969C181.781 28.7031 183.516 27.4375 185.547 26.5C187.578 25.5625 189.891 25.0938 192.484 25.0938Z" fill="#304B5F"/>
<path d="M138.719 25C143.062 25 146.672 26.0156 149.547 28.0469C152.453 30.0781 154.609 32.8594 156.016 36.3906C157.453 39.9219 158.172 43.9688 158.172 48.5312V51.9531H121.375C121.375 58.9531 122.984 64.3281 126.203 68.0781C129.453 71.8281 134.094 73.7031 140.125 73.7031C143.281 73.7031 146.016 73.4531 148.328 72.9531C150.672 72.4219 153.266 71.5312 156.109 70.2812V74.6406C153.609 75.7656 151.109 76.5781 148.609 77.0781C146.109 77.6094 143.234 77.875 139.984 77.875C134.828 77.875 130.5 76.8125 127 74.6875C123.531 72.5312 120.906 69.5 119.125 65.5938C117.375 61.6875 116.5 57.125 116.5 51.9062C116.5 46.8125 117.344 42.2344 119.031 38.1719C120.75 34.1094 123.25 30.9062 126.531 28.5625C129.844 26.1875 133.906 25 138.719 25ZM138.672 29.0781C133.797 29.0781 129.844 30.7031 126.812 33.9531C123.812 37.1719 122.047 41.8281 121.516 47.9219H153.25C153.25 44.2031 152.719 40.9219 151.656 38.0781C150.594 35.2344 148.984 33.0312 146.828 31.4688C144.703 29.875 141.984 29.0781 138.672 29.0781Z" fill="#304B5F"/>
<path d="M86.3594 76.9375L66.8125 25.9844H71.8281L84.9062 60.7188C85.7188 62.8125 86.4375 64.8281 87.0625 66.7656C87.7188 68.6719 88.2656 70.4062 88.7031 71.9688H88.9375C89.4375 70.4062 90 68.6562 90.625 66.7188C91.2812 64.7812 92 62.7812 92.7812 60.7188L105.859 25.9844H110.922L91.3281 76.9375H86.3594Z" fill="#304B5F"/>
<path d="M61.1875 51.3906C61.1875 55.3281 60.7031 58.9219 59.7344 62.1719C58.7656 65.3906 57.3281 68.1719 55.4219 70.5156C53.5156 72.8594 51.1406 74.6719 48.2969 75.9531C45.4844 77.2344 42.2031 77.875 38.4531 77.875C34.8906 77.875 31.7188 77.25 28.9375 76C26.1562 74.7188 23.7969 72.9062 21.8594 70.5625C19.9531 68.2188 18.5 65.4375 17.5 62.2188C16.5 58.9688 16 55.3594 16 51.3906C16 45.9219 16.9062 41.2188 18.7188 37.2812C20.5625 33.3125 23.1875 30.2812 26.5938 28.1875C30.0312 26.0625 34.1406 25 38.9219 25C43.8594 25 47.9688 26.125 51.25 28.375C54.5625 30.5938 57.0469 33.6875 58.7031 37.6562C60.3594 41.625 61.1875 46.2031 61.1875 51.3906ZM20.875 51.3906C20.875 55.8594 21.5156 59.7656 22.7969 63.1094C24.0781 66.4531 26.0156 69.0625 28.6094 70.9375C31.2344 72.8125 34.5469 73.75 38.5469 73.75C42.6406 73.75 46 72.8125 48.625 70.9375C51.25 69.0625 53.1875 66.4375 54.4375 63.0625C55.6875 59.6875 56.3125 55.7969 56.3125 51.3906C56.3125 47.1094 55.7188 43.2969 54.5312 39.9531C53.3438 36.6094 51.4688 33.9844 48.9062 32.0781C46.3438 30.1406 43 29.1719 38.875 29.1719C32.9688 29.1719 28.4844 31.1406 25.4219 35.0781C22.3906 39.0156 20.875 44.4531 20.875 51.3906Z" fill="#304B5F"/>
</svg>
