<svg width="681" height="75" viewBox="0 0 681 75" fill="none" xmlns="http://www.w3.org/2000/svg">
<path d="M672.969 70.8594C674.438 70.8594 675.797 70.75 677.047 70.5312C678.328 70.3125 679.453 70.0312 680.422 69.6875V73.625C679.422 73.9688 678.25 74.2656 676.906 74.5156C675.562 74.7969 674.078 74.9375 672.453 74.9375C669.578 74.9375 667.188 74.4062 665.281 73.3438C663.375 72.25 661.938 70.6094 660.969 68.4219C660 66.2031 659.516 63.3906 659.516 59.9844V26.9844H651.922V24.1719L659.469 22.7188L661.109 10.7188H664.25V23.0469H680.141V26.9844H664.25V59.7031C664.25 63.3594 664.922 66.1406 666.266 68.0469C667.641 69.9219 669.875 70.8594 672.969 70.8594Z" fill="#304B5F"/>
<path d="M642.078 22.1562C643.422 22.1562 644.688 22.2344 645.875 22.3906C647.062 22.5469 648.172 22.7656 649.203 23.0469L648.453 27.4062C647.422 27.125 646.375 26.9219 645.312 26.7969C644.25 26.6406 643.109 26.5625 641.891 26.5625C639.484 26.5625 637.328 27.0156 635.422 27.9219C633.547 28.8281 631.953 30.125 630.641 31.8125C629.328 33.5 628.328 35.5312 627.641 37.9062C626.953 40.2812 626.609 42.9375 626.609 45.875V74H621.828V23.0469H625.906L626.375 32.6562H626.656C627.438 30.6875 628.531 28.9219 629.938 27.3594C631.375 25.7656 633.109 24.5 635.141 23.5625C637.172 22.625 639.484 22.1562 642.078 22.1562Z" fill="#304B5F"/>
<path d="M607.719 48.4531C607.719 52.3906 607.234 55.9844 606.266 59.2344C605.297 62.4531 603.859 65.2344 601.953 67.5781C600.047 69.9219 597.672 71.7344 594.828 73.0156C592.016 74.2969 588.734 74.9375 584.984 74.9375C581.422 74.9375 578.25 74.3125 575.469 73.0625C572.688 71.7812 570.328 69.9688 568.391 67.625C566.484 65.2812 565.031 62.5 564.031 59.2812C563.031 56.0312 562.531 52.4219 562.531 48.4531C562.531 42.9844 563.438 38.2812 565.25 34.3438C567.094 30.375 569.719 27.3438 573.125 25.25C576.562 23.125 580.672 22.0625 585.453 22.0625C590.391 22.0625 594.5 23.1875 597.781 25.4375C601.094 27.6562 603.578 30.75 605.234 34.7188C606.891 38.6875 607.719 43.2656 607.719 48.4531ZM567.406 48.4531C567.406 52.9219 568.047 56.8281 569.328 60.1719C570.609 63.5156 572.547 66.125 575.141 68C577.766 69.875 581.078 70.8125 585.078 70.8125C589.172 70.8125 592.531 69.875 595.156 68C597.781 66.125 599.719 63.5 600.969 60.125C602.219 56.75 602.844 52.8594 602.844 48.4531C602.844 44.1719 602.25 40.3594 601.062 37.0156C599.875 33.6719 598 31.0469 595.438 29.1406C592.875 27.2031 589.531 26.2344 585.406 26.2344C579.5 26.2344 575.016 28.2031 571.953 32.1406C568.922 36.0781 567.406 41.5156 567.406 48.4531Z" fill="#304B5F"/>
<path d="M526.766 26.9844H514.766V74H510.031V26.9844H500.562V24.1719L510.031 22.9531V17.3281C510.031 13.5781 510.562 10.4688 511.625 8C512.719 5.5 514.359 3.64062 516.547 2.42188C518.766 1.17188 521.562 0.546875 524.938 0.546875C526.688 0.546875 528.266 0.6875 529.672 0.96875C531.078 1.21875 532.391 1.54688 533.609 1.95312L532.531 5.9375C531.438 5.5625 530.219 5.25 528.875 5C527.562 4.75 526.266 4.625 524.984 4.625C521.391 4.625 518.781 5.625 517.156 7.625C515.562 9.59375 514.766 12.8125 514.766 17.2812V23.0469H526.766V26.9844ZM555.594 26.9844H543.594V74H538.859V26.9844H529.391V24.1719L538.859 22.9531V17.3281C538.859 13.5781 539.391 10.4688 540.453 8C541.547 5.5 543.188 3.64062 545.375 2.42188C547.594 1.17188 550.391 0.546875 553.766 0.546875C555.516 0.546875 557.094 0.6875 558.5 0.96875C559.906 1.21875 561.219 1.54688 562.438 1.95312L561.359 5.9375C560.266 5.5625 559.047 5.25 557.703 5C556.391 4.75 555.094 4.625 553.812 4.625C550.219 4.625 547.609 5.625 545.984 7.625C544.391 9.59375 543.594 12.8125 543.594 17.2812V23.0469H555.594V26.9844Z" fill="#304B5F"/>
<path d="M474.312 22.0625C478.656 22.0625 482.266 23.0781 485.141 25.1094C488.047 27.1406 490.203 29.9219 491.609 33.4531C493.047 36.9844 493.766 41.0312 493.766 45.5938V49.0156H456.969C456.969 56.0156 458.578 61.3906 461.797 65.1406C465.047 68.8906 469.688 70.7656 475.719 70.7656C478.875 70.7656 481.609 70.5156 483.922 70.0156C486.266 69.4844 488.859 68.5938 491.703 67.3438V71.7031C489.203 72.8281 486.703 73.6406 484.203 74.1406C481.703 74.6719 478.828 74.9375 475.578 74.9375C470.422 74.9375 466.094 73.875 462.594 71.75C459.125 69.5938 456.5 66.5625 454.719 62.6562C452.969 58.75 452.094 54.1875 452.094 48.9688C452.094 43.875 452.938 39.2969 454.625 35.2344C456.344 31.1719 458.844 27.9688 462.125 25.625C465.438 23.25 469.5 22.0625 474.312 22.0625ZM474.266 26.1406C469.391 26.1406 465.438 27.7656 462.406 31.0156C459.406 34.2344 457.641 38.8906 457.109 44.9844H488.844C488.844 41.2656 488.312 37.9844 487.25 35.1406C486.188 32.2969 484.578 30.0938 482.422 28.5312C480.297 26.9375 477.578 26.1406 474.266 26.1406Z" fill="#304B5F"/>
<path d="M395.703 21.6875C400.078 21.6875 403.828 22.6562 406.953 24.5938C410.078 26.5312 412.469 29.25 414.125 32.75C415.781 36.2188 416.609 40.2812 416.609 44.9375V49.7656H381.125C381.219 55.7969 382.719 60.3906 385.625 63.5469C388.531 66.7031 392.625 68.2812 397.906 68.2812C401.156 68.2812 404.031 67.9844 406.531 67.3906C409.031 66.7969 411.625 65.9219 414.312 64.7656V71.6094C411.719 72.7656 409.141 73.6094 406.578 74.1406C404.047 74.6719 401.047 74.9375 397.578 74.9375C392.641 74.9375 388.328 73.9375 384.641 71.9375C380.984 69.9062 378.141 66.9375 376.109 63.0312C374.078 59.125 373.062 54.3438 373.062 48.6875C373.062 43.1562 373.984 38.375 375.828 34.3438C377.703 30.2812 380.328 27.1562 383.703 24.9688C387.109 22.7812 391.109 21.6875 395.703 21.6875ZM395.609 28.0625C391.453 28.0625 388.141 29.4219 385.672 32.1406C383.203 34.8594 381.734 38.6562 381.266 43.5312H408.453C408.422 40.4688 407.938 37.7812 407 35.4688C406.094 33.125 404.703 31.3125 402.828 30.0312C400.953 28.7188 398.547 28.0625 395.609 28.0625Z" fill="#304B5F"/>
<path d="M339.219 74L319.719 22.625H328.062L339.359 53.7031C340.141 55.8281 340.938 58.1719 341.75 60.7344C342.562 63.2969 343.125 65.3594 343.438 66.9219H343.766C344.141 65.3594 344.766 63.2969 345.641 60.7344C346.516 58.1406 347.312 55.7969 348.031 53.7031L359.328 22.625H367.672L348.125 74H339.219Z" fill="#304B5F"/>
<path d="M311.422 22.625V74H303.641V22.625H311.422ZM307.625 3.40625C308.906 3.40625 310 3.82812 310.906 4.67188C311.844 5.48438 312.312 6.76562 312.312 8.51562C312.312 10.2344 311.844 11.5156 310.906 12.3594C310 13.2031 308.906 13.625 307.625 13.625C306.281 13.625 305.156 13.2031 304.25 12.3594C303.375 11.5156 302.938 10.2344 302.938 8.51562C302.938 6.76562 303.375 5.48438 304.25 4.67188C305.156 3.82812 306.281 3.40625 307.625 3.40625Z" fill="#304B5F"/>
<path d="M286.016 68.5625C287.297 68.5625 288.609 68.4531 289.953 68.2344C291.297 68.0156 292.391 67.75 293.234 67.4375V73.4844C292.328 73.8906 291.062 74.2344 289.438 74.5156C287.844 74.7969 286.281 74.9375 284.75 74.9375C282.031 74.9375 279.562 74.4688 277.344 73.5312C275.125 72.5625 273.344 70.9375 272 68.6562C270.688 66.375 270.031 63.2188 270.031 59.1875V28.7188H262.719V24.9219L270.078 21.875L273.172 10.7188H277.859V22.625H292.906V28.7188H277.859V58.9531C277.859 62.1719 278.594 64.5781 280.062 66.1719C281.562 67.7656 283.547 68.5625 286.016 68.5625Z" fill="#304B5F"/>
<path d="M243.969 74.9375C239.344 74.9375 235.266 73.9844 231.734 72.0781C228.203 70.1719 225.453 67.2656 223.484 63.3594C221.516 59.4531 220.531 54.5312 220.531 48.5938C220.531 42.375 221.562 37.2969 223.625 33.3594C225.719 29.3906 228.594 26.4531 232.25 24.5469C235.906 22.6406 240.062 21.6875 244.719 21.6875C247.281 21.6875 249.75 21.9531 252.125 22.4844C254.531 22.9844 256.5 23.625 258.031 24.4062L255.688 30.9219C254.125 30.2969 252.312 29.7344 250.25 29.2344C248.219 28.7344 246.312 28.4844 244.531 28.4844C240.969 28.4844 238 29.25 235.625 30.7812C233.281 32.3125 231.516 34.5625 230.328 37.5312C229.172 40.5 228.594 44.1562 228.594 48.5C228.594 52.6562 229.156 56.2031 230.281 59.1406C231.438 62.0781 233.141 64.3281 235.391 65.8906C237.672 67.4219 240.516 68.1875 243.922 68.1875C246.641 68.1875 249.094 67.9062 251.281 67.3438C253.469 66.75 255.453 66.0625 257.234 65.2812V72.2188C255.516 73.0938 253.594 73.7656 251.469 74.2344C249.375 74.7031 246.875 74.9375 243.969 74.9375Z" fill="#304B5F"/>
<path d="M189.266 21.6875C193.641 21.6875 197.391 22.6562 200.516 24.5938C203.641 26.5312 206.031 29.25 207.688 32.75C209.344 36.2188 210.172 40.2812 210.172 44.9375V49.7656H174.688C174.781 55.7969 176.281 60.3906 179.188 63.5469C182.094 66.7031 186.188 68.2812 191.469 68.2812C194.719 68.2812 197.594 67.9844 200.094 67.3906C202.594 66.7969 205.188 65.9219 207.875 64.7656V71.6094C205.281 72.7656 202.703 73.6094 200.141 74.1406C197.609 74.6719 194.609 74.9375 191.141 74.9375C186.203 74.9375 181.891 73.9375 178.203 71.9375C174.547 69.9062 171.703 66.9375 169.672 63.0312C167.641 59.125 166.625 54.3438 166.625 48.6875C166.625 43.1562 167.547 38.375 169.391 34.3438C171.266 30.2812 173.891 27.1562 177.266 24.9688C180.672 22.7812 184.672 21.6875 189.266 21.6875ZM189.172 28.0625C185.016 28.0625 181.703 29.4219 179.234 32.1406C176.766 34.8594 175.297 38.6562 174.828 43.5312H202.016C201.984 40.4688 201.5 37.7812 200.562 35.4688C199.656 33.125 198.266 31.3125 196.391 30.0312C194.516 28.7188 192.109 28.0625 189.172 28.0625Z" fill="#304B5F"/>
<path d="M153.031 74H145.203V1.0625H153.031V74Z" fill="#304B5F"/>
<path d="M128.75 74H120.922V1.0625H128.75V74Z" fill="#304B5F"/>
<path d="M107.469 48.2188C107.469 52.4375 106.922 56.2031 105.828 59.5156C104.734 62.8281 103.156 65.625 101.094 67.9062C99.0312 70.1875 96.5312 71.9375 93.5938 73.1562C90.6875 74.3438 87.3906 74.9375 83.7031 74.9375C80.2656 74.9375 77.1094 74.3438 74.2344 73.1562C71.3906 71.9375 68.9219 70.1875 66.8281 67.9062C64.7656 65.625 63.1562 62.8281 62 59.5156C60.875 56.2031 60.3125 52.4375 60.3125 48.2188C60.3125 42.5938 61.2656 37.8125 63.1719 33.875C65.0781 29.9062 67.7969 26.8906 71.3281 24.8281C74.8906 22.7344 79.125 21.6875 84.0312 21.6875C88.7188 21.6875 92.8125 22.7344 96.3125 24.8281C99.8438 26.9219 102.578 29.9531 104.516 33.9219C106.484 37.8594 107.469 42.625 107.469 48.2188ZM68.375 48.2188C68.375 52.3438 68.9219 55.9219 70.0156 58.9531C71.1094 61.9844 72.7969 64.3281 75.0781 65.9844C77.3594 67.6406 80.2969 68.4688 83.8906 68.4688C87.4531 68.4688 90.375 67.6406 92.6562 65.9844C94.9688 64.3281 96.6719 61.9844 97.7656 58.9531C98.8594 55.9219 99.4062 52.3438 99.4062 48.2188C99.4062 44.125 98.8594 40.5938 97.7656 37.625C96.6719 34.625 94.9844 32.3125 92.7031 30.6875C90.4219 29.0625 87.4688 28.25 83.8438 28.25C78.5 28.25 74.5781 30.0156 72.0781 33.5469C69.6094 37.0781 68.375 41.9688 68.375 48.2188Z" fill="#304B5F"/>
<path d="M33.1719 11.5156C29.3906 11.5156 25.9844 12.1719 22.9531 13.4844C19.9531 14.7656 17.3906 16.6406 15.2656 19.1094C13.1719 21.5469 11.5625 24.5 10.4375 27.9688C9.3125 31.4375 8.75 35.3438 8.75 39.6875C8.75 45.4375 9.64062 50.4375 11.4219 54.6875C13.2344 58.9062 15.9219 62.1719 19.4844 64.4844C23.0781 66.7969 27.5625 67.9531 32.9375 67.9531C36 67.9531 38.875 67.7031 41.5625 67.2031C44.2812 66.6719 46.9219 66.0156 49.4844 65.2344V72.1719C46.9844 73.1094 44.3594 73.7969 41.6094 74.2344C38.8594 74.7031 35.5938 74.9375 31.8125 74.9375C24.8438 74.9375 19.0156 73.5 14.3281 70.625C9.67188 67.7188 6.17188 63.625 3.82812 58.3438C1.51562 53.0625 0.359375 46.8281 0.359375 39.6406C0.359375 34.4531 1.07812 29.7188 2.51562 25.4375C3.98438 21.125 6.10938 17.4062 8.89062 14.2812C11.7031 11.1562 15.1406 8.75 19.2031 7.0625C23.2969 5.34375 27.9844 4.48438 33.2656 4.48438C36.7344 4.48438 40.0781 4.82812 43.2969 5.51562C46.5156 6.20312 49.4219 7.1875 52.0156 8.46875L48.8281 15.2188C46.6406 14.2188 44.2344 13.3594 41.6094 12.6406C39.0156 11.8906 36.2031 11.5156 33.1719 11.5156Z" fill="#304B5F"/>
</svg>
