<svg width="749" height="70" viewBox="0 0 749 70" fill="none" xmlns="http://www.w3.org/2000/svg">
<path d="M381.242 60.8438C382.523 60.8438 383.836 60.7344 385.18 60.5156C386.523 60.2969 387.617 60.0312 388.461 59.7188V65.7656C387.555 66.1719 386.289 66.5156 384.664 66.7969C383.07 67.0781 381.508 67.2188 379.977 67.2188C377.258 67.2188 374.789 66.75 372.57 65.8125C370.352 64.8438 368.57 63.2188 367.227 60.9375C365.914 58.6562 365.258 55.5 365.258 51.4688V21H357.945V17.2031L365.305 14.1562L368.398 3H373.086V14.9062H388.133V21H373.086V51.2344C373.086 54.4531 373.82 56.8594 375.289 58.4531C376.789 60.0469 378.773 60.8438 381.242 60.8438Z" fill="#F0F0F5"/>
<path d="M332.475 67.2188C327.85 67.2188 323.771 66.2656 320.24 64.3594C316.709 62.4531 313.959 59.5469 311.99 55.6406C310.021 51.7344 309.037 46.8125 309.037 40.875C309.037 34.6562 310.068 29.5781 312.131 25.6406C314.225 21.6719 317.1 18.7344 320.756 16.8281C324.412 14.9219 328.568 13.9688 333.225 13.9688C335.787 13.9688 338.256 14.2344 340.631 14.7656C343.037 15.2656 345.006 15.9062 346.537 16.6875L344.193 23.2031C342.631 22.5781 340.818 22.0156 338.756 21.5156C336.725 21.0156 334.818 20.7656 333.037 20.7656C329.475 20.7656 326.506 21.5312 324.131 23.0625C321.787 24.5938 320.021 26.8438 318.834 29.8125C317.678 32.7812 317.1 36.4375 317.1 40.7812C317.1 44.9375 317.662 48.4844 318.787 51.4219C319.943 54.3594 321.646 56.6094 323.896 58.1719C326.178 59.7031 329.021 60.4688 332.428 60.4688C335.146 60.4688 337.6 60.1875 339.787 59.625C341.975 59.0312 343.959 58.3438 345.74 57.5625V64.5C344.021 65.375 342.1 66.0469 339.975 66.5156C337.881 66.9844 335.381 67.2188 332.475 67.2188Z" fill="#F0F0F5"/>
<path d="M271.052 13.9688C275.427 13.9688 279.177 14.9375 282.302 16.875C285.427 18.8125 287.817 21.5312 289.474 25.0312C291.13 28.5 291.958 32.5625 291.958 37.2188V42.0469H256.474C256.567 48.0781 258.067 52.6719 260.974 55.8281C263.88 58.9844 267.974 60.5625 273.255 60.5625C276.505 60.5625 279.38 60.2656 281.88 59.6719C284.38 59.0781 286.974 58.2031 289.661 57.0469V63.8906C287.067 65.0469 284.489 65.8906 281.927 66.4219C279.396 66.9531 276.396 67.2188 272.927 67.2188C267.989 67.2188 263.677 66.2188 259.989 64.2188C256.333 62.1875 253.489 59.2188 251.458 55.3125C249.427 51.4062 248.411 46.625 248.411 40.9688C248.411 35.4375 249.333 30.6562 251.177 26.625C253.052 22.5625 255.677 19.4375 259.052 17.25C262.458 15.0625 266.458 13.9688 271.052 13.9688ZM270.958 20.3438C266.802 20.3438 263.489 21.7031 261.021 24.4219C258.552 27.1406 257.083 30.9375 256.614 35.8125H283.802C283.771 32.75 283.286 30.0625 282.349 27.75C281.442 25.4062 280.052 23.5938 278.177 22.3125C276.302 21 273.896 20.3438 270.958 20.3438Z" fill="#F0F0F5"/>
<path d="M210.004 13.9688C216.098 13.9688 220.707 15.4688 223.832 18.4688C226.957 21.4375 228.52 26.2188 228.52 32.8125V66.2812H220.832V33.3281C220.832 29.0469 219.848 25.8438 217.879 23.7188C215.941 21.5938 212.957 20.5312 208.926 20.5312C203.238 20.5312 199.238 22.1406 196.926 25.3594C194.613 28.5781 193.457 33.25 193.457 39.375V66.2812H185.676V14.9062H191.957L193.129 22.3125H193.551C194.645 20.5 196.035 18.9844 197.723 17.7656C199.41 16.5156 201.301 15.5781 203.395 14.9531C205.488 14.2969 207.691 13.9688 210.004 13.9688Z" fill="#F0F0F5"/>
<path d="M144.409 13.9688C150.503 13.9688 155.112 15.4688 158.237 18.4688C161.362 21.4375 162.925 26.2188 162.925 32.8125V66.2812H155.237V33.3281C155.237 29.0469 154.253 25.8438 152.284 23.7188C150.347 21.5938 147.362 20.5312 143.331 20.5312C137.644 20.5312 133.644 22.1406 131.331 25.3594C129.019 28.5781 127.862 33.25 127.862 39.375V66.2812H120.081V14.9062H126.362L127.534 22.3125H127.956C129.05 20.5 130.44 18.9844 132.128 17.7656C133.815 16.5156 135.706 15.5781 137.8 14.9531C139.894 14.2969 142.097 13.9688 144.409 13.9688Z" fill="#F0F0F5"/>
<path d="M99.9072 40.5C99.9072 44.7188 99.3604 48.4844 98.2666 51.7969C97.1729 55.1094 95.5947 57.9062 93.5322 60.1875C91.4697 62.4688 88.9697 64.2188 86.0322 65.4375C83.126 66.625 79.8291 67.2188 76.1416 67.2188C72.7041 67.2188 69.5479 66.625 66.6729 65.4375C63.8291 64.2188 61.3604 62.4688 59.2666 60.1875C57.2041 57.9062 55.5947 55.1094 54.4385 51.7969C53.3135 48.4844 52.751 44.7188 52.751 40.5C52.751 34.875 53.7041 30.0938 55.6104 26.1562C57.5166 22.1875 60.2354 19.1719 63.7666 17.1094C67.3291 15.0156 71.5635 13.9688 76.4697 13.9688C81.1572 13.9688 85.251 15.0156 88.751 17.1094C92.2822 19.2031 95.0166 22.2344 96.9541 26.2031C98.9229 30.1406 99.9072 34.9062 99.9072 40.5ZM60.8135 40.5C60.8135 44.625 61.3604 48.2031 62.4541 51.2344C63.5479 54.2656 65.2354 56.6094 67.5166 58.2656C69.7979 59.9219 72.7354 60.75 76.3291 60.75C79.8916 60.75 82.8135 59.9219 85.0947 58.2656C87.4072 56.6094 89.1104 54.2656 90.2041 51.2344C91.2979 48.2031 91.8447 44.625 91.8447 40.5C91.8447 36.4062 91.2979 32.875 90.2041 29.9062C89.1104 26.9062 87.4229 24.5938 85.1416 22.9688C82.8604 21.3438 79.9072 20.5312 76.2822 20.5312C70.9385 20.5312 67.0166 22.2969 64.5166 25.8281C62.0479 29.3594 60.8135 34.25 60.8135 40.5Z" fill="#F0F0F5"/>
<path d="M23.4375 67.2188C18.8125 67.2188 14.7344 66.2656 11.2031 64.3594C7.67188 62.4531 4.92188 59.5469 2.95312 55.6406C0.984375 51.7344 0 46.8125 0 40.875C0 34.6562 1.03125 29.5781 3.09375 25.6406C5.1875 21.6719 8.0625 18.7344 11.7188 16.8281C15.375 14.9219 19.5312 13.9688 24.1875 13.9688C26.75 13.9688 29.2188 14.2344 31.5938 14.7656C34 15.2656 35.9688 15.9062 37.5 16.6875L35.1562 23.2031C33.5938 22.5781 31.7812 22.0156 29.7188 21.5156C27.6875 21.0156 25.7812 20.7656 24 20.7656C20.4375 20.7656 17.4688 21.5312 15.0938 23.0625C12.75 24.5938 10.9844 26.8438 9.79688 29.8125C8.64062 32.7812 8.0625 36.4375 8.0625 40.7812C8.0625 44.9375 8.625 48.4844 9.75 51.4219C10.9062 54.3594 12.6094 56.6094 14.8594 58.1719C17.1406 59.7031 19.9844 60.4688 23.3906 60.4688C26.1094 60.4688 28.5625 60.1875 30.75 59.625C32.9375 59.0312 34.9219 58.3438 36.7031 57.5625V64.5C34.9844 65.375 33.0625 66.0469 30.9375 66.5156C28.8438 66.9844 26.3438 67.2188 23.4375 67.2188Z" fill="#F0F0F5"/>
</svg>
