<svg width="24" height="25" viewBox="0 0 24 25" fill="none" xmlns="http://www.w3.org/2000/svg">
<path fill-rule="evenodd" clip-rule="evenodd" d="M21 20.2508C21 20.7952 20.5532 21.25 19.9841 21.25H4.01594C3.44643 21.25 3 20.7948 3 20.2508V4.2492C3 3.70557 3.44722 3.25 4.01594 3.25H19.9841C20.5536 3.25 21 3.7052 21 4.2492V20.2508ZM22 20.2508C22 21.3556 21.0973 22.25 19.9841 22.25H4.01594C2.90153 22.25 2 21.3544 2 20.2508V4.2492C2 3.14556 2.90269 2.25 4.01594 2.25H19.9841C21.0985 2.25 22 3.14556 22 4.2492V20.2508ZM12.6387 15.1564L16.4115 11.8552C16.6193 11.6734 16.9352 11.6944 17.117 11.9022C17.2988 12.1101 17.2778 12.4259 17.07 12.6078L12.1387 16.9227L7.20737 12.6078C6.99955 12.4259 6.97849 12.1101 7.16033 11.9022C7.34217 11.6944 7.65805 11.6734 7.86587 11.8552L11.6387 15.1564L11.6387 6.24756C11.6387 5.97142 11.8625 5.74756 12.1387 5.74756C12.4148 5.74756 12.6387 5.97142 12.6387 6.24756L12.6387 15.1564ZM5.13183 18.3167C5.13183 18.0405 5.35568 17.8167 5.63183 17.8167H18.3686C18.6448 17.8167 18.8686 18.0405 18.8686 18.3167C18.8686 18.5928 18.6448 18.8167 18.3686 18.8167H5.63183C5.35568 18.8167 5.13183 18.5928 5.13183 18.3167Z" fill="#F0F0F5"/>
</svg>
