<svg width="31" height="30" viewBox="0 0 31 30" fill="none" xmlns="http://www.w3.org/2000/svg">
<path fill-rule="evenodd" clip-rule="evenodd" d="M25.1065 27.5C26.4981 27.5 27.6265 26.382 27.6265 25.001V4.99899C27.6265 3.61945 26.4996 2.5 25.1065 2.5H5.14639C3.75483 2.5 2.62646 3.61945 2.62646 4.99899V25.001C2.62646 26.3806 3.75338 27.5 5.14639 27.5H25.1065ZM10.7593 8.61302C10.7593 9.53128 10.0729 10.2757 8.94458 10.2757C7.8831 10.2757 7.19678 9.53128 7.19678 8.61302C7.19678 7.69476 7.90491 6.95038 8.98966 6.95038C10.0744 6.95038 10.7375 7.67177 10.7593 8.61302ZM7.28548 22.2806V11.5862H10.6488V22.2806H7.28548ZM12.6615 14.9976C12.6615 13.6641 12.6178 12.5489 12.5728 11.5861H15.494L15.6496 13.0734H15.7165C16.1585 12.3736 17.2433 11.3461 19.058 11.3461C21.2711 11.3461 22.9302 12.8119 22.9302 15.9604V22.2805H19.5669V16.3542C19.5669 14.9761 19.0798 14.0362 17.8627 14.0362C16.9335 14.0362 16.381 14.67 16.1367 15.2822C16.048 15.5006 16.0262 15.8067 16.0262 16.1128V22.2791H12.6629V14.9962L12.6615 14.9976Z" fill="black"/>
</svg>
