<svg width="31" height="30" viewBox="0 0 31 30" fill="none" xmlns="http://www.w3.org/2000/svg">
<circle cx="15.75" cy="15" r="15" fill="#BAB9CC"/>
<path fill-rule="evenodd" clip-rule="evenodd" d="M21.8368 10.0939C22.5035 10.4779 22.5049 11.4394 21.8393 11.8254L16.8691 14.7078C16.5651 14.8841 16.1909 14.8879 15.8834 14.7177L10.633 11.8133C9.95248 11.4368 9.94325 10.4618 10.6165 10.0725L15.6984 7.13429C16.0076 6.95552 16.3886 6.95522 16.6981 7.1335L21.8368 10.0939ZM22.2564 12.5299C22.923 12.1513 23.7502 12.6328 23.7502 13.3995V19.3495C23.7502 19.7093 23.5569 20.0414 23.244 20.2191L18.0026 23.1954C17.3359 23.574 16.5088 23.0925 16.5088 22.3258V16.3758C16.5088 16.016 16.7021 15.6839 17.015 15.5062L22.2564 12.5299ZM15.7328 16.3653C15.7328 16.0111 15.5454 15.6834 15.2402 15.5036L10.2574 12.5693C9.59081 12.1768 8.75 12.6574 8.75 13.431V19.36C8.75 19.7142 8.93736 20.042 9.24256 20.2217L14.2253 23.156C14.8919 23.5485 15.7328 23.0679 15.7328 22.2943V16.3653Z" fill="#F9F9FC"/>
</svg>
