<svg version="1.2" xmlns="http://www.w3.org/2000/svg" viewBox="0 0 360 204" width="360" height="204"><style>.a{fill:#f0f0f5}</style><path fill-rule="evenodd" class="a" d="m47.7 14.9q14.7 0 22 5.6 7.3 5.6 7.3 17.5 0 6-2 10.8-1.9 4.6-5.8 7.8-3.8 3.2-9.7 4.9-5.8 1.6-13.5 1.6h-12.6v33.9h-5.8v-82.1zm-0.7 5.1h-13.7v38h12.1q7.9 0 13.7-1.8 5.7-1.9 8.8-6.2 3.1-4.3 3.1-11.8 0-9.5-5.9-13.8-5.8-4.4-18.1-4.4zm88.9 46.4q0 7.1-1.7 12.9-1.8 5.8-5.2 10-3.4 4.2-8.5 6.5-5.1 2.3-11.8 2.3-6.4 0-11.4-2.2-5-2.3-8.5-6.5-3.4-4.2-5.2-10-1.8-5.9-1.8-13 0-9.8 3.2-16.9 3.4-7.1 9.5-10.9 6.2-3.8 14.7-3.8 8.9 0 14.8 4 6 4 8.9 11.1 3 7.2 3 16.5zm-48.3 0q0 8 2.3 14 2.3 6 7 9.4 4.7 3.4 11.9 3.4 7.4 0 12.1-3.4 4.7-3.4 6.9-9.4 2.3-6.1 2.3-14 0-7.7-2.2-13.7-2.1-6-6.7-9.4-4.6-3.5-12-3.5-10.6 0-16.1 7.1-5.5 7-5.5 19.5zm91.8-31.5q2.4 0 4.5 0.3 2.2 0.3 4 0.8l-0.9 5.2q-1.8-0.5-3.7-0.7-2-0.3-4.1-0.3-4.4 0-7.8 1.6-3.4 1.6-5.7 4.7-2.4 3-3.6 7.3-1.3 4.2-1.3 9.5v33.7h-5.7v-61h4.9l0.6 11.5h0.3q1.4-3.6 3.9-6.4 2.6-2.8 6.3-4.5 3.6-1.7 8.3-1.7zm40.4 58.3q2.7 0 4.9-0.4 2.3-0.3 4.1-1v4.8q-1.8 0.6-4.3 1-2.4 0.5-5.3 0.5-5.2 0-8.6-1.9-3.4-2-5.1-5.9-1.8-4-1.8-10.1v-39.5h-9.1v-3.4l9.1-1.7 1.9-14.4h3.8v14.8h19v4.7h-19v39.2q0 6.5 2.4 10 2.5 3.3 8 3.3zm-171 46.5h-14.4v56.3h-5.7v-56.3h-11.3v-3.4l11.3-1.5v-6.7q0-6.7 2-11.2 1.9-4.5 5.8-6.6 4-2.3 10.1-2.3 3.1 0 5.7 0.5 2.5 0.5 4.7 1.2l-1.3 4.8q-2-0.7-4.4-1.2-2.3-0.4-4.6-0.4-6.5 0-9.4 3.6-2.9 3.5-2.9 11.6v6.9h14.4zm63.6 25.7q0 7.1-1.7 12.9-1.7 5.8-5.2 10-3.4 4.2-8.5 6.5-5.1 2.3-11.8 2.3-6.4 0-11.4-2.2-5-2.3-8.5-6.6-3.4-4.2-5.2-9.9-1.8-5.9-1.8-13 0-9.8 3.3-16.9 3.3-7.2 9.4-10.9 6.2-3.8 14.8-3.8 8.8 0 14.7 4 6 4 9 11.1 2.9 7.2 2.9 16.5zm-48.3 0q0 8 2.3 14 2.4 6 7 9.4 4.7 3.4 11.9 3.4 7.4 0 12.1-3.4 4.7-3.4 7-9.4 2.2-6.1 2.2-14 0-7.7-2.1-13.7-2.2-6-6.8-9.5-4.6-3.4-12-3.4-10.6 0-16.1 7-5.5 7.1-5.5 19.6zm71 30.6h-5.8v-87.4h5.8zm31.7-61v61h-5.7v-61zm-2.8-22.6q2.2 0 3.2 1.3 1 1.2 1 3.4 0 2.1-1 3.3-1 1.3-3.2 1.3-2 0-3-1.3-1-1.2-1-3.3 0-2.2 1-3.4 1-1.3 3-1.3zm73.8 53q0 7.1-1.7 12.9-1.8 5.8-5.2 10-3.4 4.2-8.5 6.5-5.1 2.3-11.8 2.3-6.4 0-11.4-2.2-5-2.3-8.5-6.5-3.4-4.2-5.2-10-1.8-5.9-1.8-13 0-9.8 3.2-16.9 3.4-7.1 9.5-10.9 6.2-3.8 14.7-3.8 8.9 0 14.8 4 6 4 8.9 11.2 3 7.1 3 16.4zm-48.3 0q0 8 2.3 14 2.3 6.1 7 9.4 4.7 3.4 11.9 3.4 7.4 0 12.1-3.4 4.7-3.3 6.9-9.4 2.3-6.1 2.3-14 0-7.7-2.2-13.7-2.1-6-6.7-9.4-4.6-3.5-12-3.5-10.6 0-16.1 7.1-5.5 7-5.5 19.5z"/></svg>