<svg width="329" height="105" viewBox="0 0 329 105" fill="none" xmlns="http://www.w3.org/2000/svg">
<path fill-rule="evenodd" clip-rule="evenodd" d="M2.63281 0.0234375V40H24.4805V37.4297H5.44922V0.0234375H2.63281ZM48.2148 11.4805C46.5378 10.2956 44.4323 9.70312 41.8984 9.70312C39.0911 9.70312 36.7214 10.3958 34.7891 11.7812C32.875 13.1484 31.4167 15.0169 30.4141 17.3867C29.4297 19.7565 28.9375 22.4271 28.9375 25.3984C28.9375 28.4427 29.4479 31.1042 30.4688 33.3828C31.5078 35.6615 33.0391 37.4297 35.0625 38.6875C37.1042 39.9271 39.6289 40.5469 42.6367 40.5469C44.5326 40.5469 46.2096 40.3919 47.668 40.082C49.1263 39.7904 50.5846 39.3164 52.043 38.6602V36.1172C50.3841 36.8464 48.8711 37.3659 47.5039 37.6758C46.1549 37.9674 44.5599 38.1133 42.7188 38.1133C39.2005 38.1133 36.4935 37.0195 34.5977 34.832C32.7201 32.6445 31.7812 29.5091 31.7812 25.4258H53.2461V23.4297C53.2461 20.7682 52.8268 18.4076 51.9883 16.3477C51.168 14.2878 49.9102 12.6654 48.2148 11.4805ZM34.9531 14.9258C36.7214 13.0299 39.0273 12.082 41.8711 12.082C43.8034 12.082 45.3893 12.5469 46.6289 13.4766C47.8867 14.388 48.8255 15.6732 49.4453 17.332C50.0651 18.9909 50.375 20.9049 50.375 23.0742H31.8633C32.1732 19.5195 33.2031 16.8034 34.9531 14.9258ZM71.8398 37.9766C71.1107 38.1042 70.3177 38.168 69.4609 38.168C67.6562 38.168 66.3529 37.6211 65.5508 36.5273C64.7669 35.4154 64.375 33.793 64.375 31.6602V12.5742H73.6445V10.2773H64.375V3.08594H62.543L61.5859 10.0859L57.1836 10.9336V12.5742H61.6133V31.8242C61.6133 33.8112 61.8958 35.4518 62.4609 36.7461C63.026 38.0221 63.8646 38.9792 64.9766 39.6172C66.0885 40.237 67.4831 40.5469 69.1602 40.5469C70.1081 40.5469 70.974 40.4648 71.7578 40.3008C72.5417 40.1549 73.2253 39.9818 73.8086 39.7812V37.4844C73.2435 37.6849 72.5872 37.849 71.8398 37.9766ZM82.3672 0.570312L81.9844 0.0234375H79.332C79.2044 1.02604 79.0312 2.11068 78.8125 3.27734C78.612 4.44401 78.3659 5.63802 78.0742 6.85938C77.8008 8.08073 77.4909 9.28385 77.1445 10.4688C76.7982 11.6354 76.4427 12.7201 76.0781 13.7227H78.0469C78.6484 12.4102 79.2227 11.0156 79.7695 9.53906C80.3164 8.0625 80.8177 6.55859 81.2734 5.02734C81.7292 3.49609 82.0938 2.01042 82.3672 0.570312ZM105.582 36.7461C106.475 35.4883 106.922 33.9753 106.922 32.207C106.922 30.4206 106.484 29.0078 105.609 27.9688C104.734 26.9297 103.559 26.082 102.082 25.4258C100.624 24.7695 99.0286 24.1406 97.2969 23.5391C95.6198 22.9557 94.1706 22.4271 92.9492 21.9531C91.7279 21.4609 90.7891 20.8594 90.1328 20.1484C89.4766 19.4193 89.1484 18.4167 89.1484 17.1406C89.1484 15.4818 89.832 14.224 91.1992 13.3672C92.5664 12.5104 94.4622 12.082 96.8867 12.082C98.3633 12.082 99.8398 12.2461 101.316 12.5742C102.793 12.9023 104.096 13.3307 105.227 13.8594L106.211 11.5078C104.953 10.9792 103.549 10.5508 102 10.2227C100.469 9.8763 98.8099 9.70312 97.0234 9.70312C93.7969 9.70312 91.2266 10.3685 89.3125 11.6992C87.3984 13.0299 86.4414 14.8893 86.4414 17.2773C86.4414 19.0273 86.8424 20.4128 87.6445 21.4336C88.4466 22.4362 89.5495 23.2474 90.9531 23.8672C92.375 24.4688 93.9974 25.0794 95.8203 25.6992C97.5703 26.2826 99.0651 26.8568 100.305 27.4219C101.544 27.987 102.492 28.6615 103.148 29.4453C103.823 30.2109 104.16 31.1862 104.16 32.3711C104.16 34.1758 103.486 35.5977 102.137 36.6367C100.788 37.6758 98.582 38.1953 95.5195 38.1953C93.7695 38.1953 92.0651 37.9857 90.4062 37.5664C88.7474 37.1471 87.2344 36.6003 85.8672 35.9258V38.6602C86.9609 39.1888 88.319 39.6354 89.9414 40C91.5638 40.3646 93.4049 40.5469 95.4648 40.5469C97.944 40.5469 100.031 40.2279 101.727 39.5898C103.422 38.9336 104.707 37.9857 105.582 36.7461ZM6.35156 102.715C8.39323 103.936 10.8906 104.547 13.8438 104.547C15.4661 104.547 16.9062 104.401 18.1641 104.109C19.4401 103.836 20.5612 103.48 21.5273 103.043V100.527C20.4518 100.983 19.2578 101.357 17.9453 101.648C16.651 101.94 15.2839 102.086 13.8438 102.086C11.3646 102.086 9.33203 101.539 7.74609 100.445C6.16016 99.3333 4.98438 97.8203 4.21875 95.9062C3.45312 93.974 3.07031 91.7591 3.07031 89.2617C3.07031 86.6003 3.51693 84.2943 4.41016 82.3438C5.32161 80.375 6.625 78.862 8.32031 77.8047C10.0339 76.7292 12.112 76.1914 14.5547 76.1914C15.612 76.1914 16.7148 76.3099 17.8633 76.5469C19.0117 76.7839 20.0964 77.1302 21.1172 77.5859L21.8555 75.1523C20.8711 74.6966 19.7682 74.3411 18.5469 74.0859C17.3255 73.8307 16.0039 73.7031 14.582 73.7031C11.6836 73.7031 9.15885 74.3229 7.00781 75.5625C4.85677 76.8021 3.1888 78.5885 2.00391 80.9219C0.81901 83.237 0.226562 86.026 0.226562 89.2891C0.226562 92.4245 0.736979 95.1406 1.75781 97.4375C2.79688 99.7161 4.32812 101.475 6.35156 102.715ZM52.3711 95.3867C52.9362 93.4909 53.2188 91.3945 53.2188 89.0977C53.2188 86.0716 52.7357 83.401 51.7695 81.0859C50.8034 78.7708 49.3542 76.9661 47.4219 75.6719C45.5078 74.3594 43.1107 73.7031 40.2305 73.7031C37.4414 73.7031 35.0443 74.3229 33.0391 75.5625C31.0521 76.7839 29.5208 78.5521 28.4453 80.8672C27.388 83.1641 26.8594 85.9076 26.8594 89.0977C26.8594 91.4128 27.151 93.5182 27.7344 95.4141C28.3177 97.2917 29.1654 98.9141 30.2773 100.281C31.4076 101.648 32.7839 102.706 34.4062 103.453C36.0286 104.182 37.8789 104.547 39.957 104.547C42.1445 104.547 44.0586 104.173 45.6992 103.426C47.3581 102.678 48.7435 101.621 49.8555 100.254C50.9674 98.8867 51.806 97.2643 52.3711 95.3867ZM30.8242 95.9336C30.0768 93.9831 29.7031 91.7044 29.7031 89.0977C29.7031 85.0508 30.5872 81.8789 32.3555 79.582C34.1419 77.2852 36.7578 76.1367 40.2031 76.1367C42.6094 76.1367 44.5599 76.7018 46.0547 77.832C47.5495 78.944 48.6432 80.4753 49.3359 82.4258C50.0286 84.3763 50.375 86.6003 50.375 89.0977C50.375 91.668 50.0104 93.9375 49.2812 95.9062C48.5521 97.875 47.4219 99.4062 45.8906 100.5C44.3594 101.594 42.3997 102.141 40.0117 102.141C37.6784 102.141 35.7461 101.594 34.2148 100.5C32.7018 99.4062 31.5716 97.8841 30.8242 95.9336ZM82.2031 76.3281C80.4167 74.5781 77.8555 73.7031 74.5195 73.7031C72.7331 73.7031 71.1654 73.9766 69.8164 74.5234C68.4674 75.0521 67.3281 75.7721 66.3984 76.6836C65.487 77.5768 64.7669 78.5794 64.2383 79.6914H64.0742L63.6641 74.2773H61.4219V104H64.1836V87.6211C64.1836 83.7747 65.0404 80.9036 66.7539 79.0078C68.4857 77.0938 70.9831 76.1367 74.2461 76.1367C76.8164 76.1367 78.776 76.8294 80.125 78.2148C81.474 79.6003 82.1484 81.7695 82.1484 84.7227V104H84.8828V84.5586C84.8828 80.8216 83.9896 78.0781 82.2031 76.3281ZM115.289 76.3281C113.503 74.5781 110.941 73.7031 107.605 73.7031C105.819 73.7031 104.251 73.9766 102.902 74.5234C101.553 75.0521 100.414 75.7721 99.4844 76.6836C98.5729 77.5768 97.8529 78.5794 97.3242 79.6914H97.1602L96.75 74.2773H94.5078V104H97.2695V87.6211C97.2695 83.7747 98.1263 80.9036 99.8398 79.0078C101.572 77.0938 104.069 76.1367 107.332 76.1367C109.902 76.1367 111.862 76.8294 113.211 78.2148C114.56 79.6003 115.234 81.7695 115.234 84.7227V104H117.969V84.5586C117.969 80.8216 117.076 78.0781 115.289 76.3281ZM145.176 75.4805C143.499 74.2956 141.393 73.7031 138.859 73.7031C136.052 73.7031 133.682 74.3958 131.75 75.7812C129.836 77.1484 128.378 79.0169 127.375 81.3867C126.391 83.7565 125.898 86.4271 125.898 89.3984C125.898 92.4427 126.409 95.1042 127.43 97.3828C128.469 99.6615 130 101.43 132.023 102.688C134.065 103.927 136.59 104.547 139.598 104.547C141.493 104.547 143.171 104.392 144.629 104.082C146.087 103.79 147.546 103.316 149.004 102.66V100.117C147.345 100.846 145.832 101.366 144.465 101.676C143.116 101.967 141.521 102.113 139.68 102.113C136.161 102.113 133.454 101.02 131.559 98.832C129.681 96.6445 128.742 93.5091 128.742 89.4258H150.207V87.4297C150.207 84.7682 149.788 82.4076 148.949 80.3477C148.129 78.2878 146.871 76.6654 145.176 75.4805ZM131.914 78.9258C133.682 77.0299 135.988 76.082 138.832 76.082C140.764 76.082 142.35 76.5469 143.59 77.4766C144.848 78.388 145.786 79.6732 146.406 81.332C147.026 82.9909 147.336 84.9049 147.336 87.0742H128.824C129.134 83.5195 130.164 80.8034 131.914 78.9258ZM162.812 102.715C164.854 103.936 167.352 104.547 170.305 104.547C171.927 104.547 173.367 104.401 174.625 104.109C175.901 103.836 177.022 103.48 177.988 103.043V100.527C176.913 100.983 175.719 101.357 174.406 101.648C173.112 101.94 171.745 102.086 170.305 102.086C167.826 102.086 165.793 101.539 164.207 100.445C162.621 99.3333 161.445 97.8203 160.68 95.9062C159.914 93.974 159.531 91.7591 159.531 89.2617C159.531 86.6003 159.978 84.2943 160.871 82.3438C161.783 80.375 163.086 78.862 164.781 77.8047C166.495 76.7292 168.573 76.1914 171.016 76.1914C172.073 76.1914 173.176 76.3099 174.324 76.5469C175.473 76.7839 176.557 77.1302 177.578 77.5859L178.316 75.1523C177.332 74.6966 176.229 74.3411 175.008 74.0859C173.786 73.8307 172.465 73.7031 171.043 73.7031C168.145 73.7031 165.62 74.3229 163.469 75.5625C161.318 76.8021 159.65 78.5885 158.465 80.9219C157.28 83.237 156.688 86.026 156.688 89.2891C156.688 92.4245 157.198 95.1406 158.219 97.4375C159.258 99.7161 160.789 101.475 162.812 102.715ZM195.434 101.977C194.704 102.104 193.911 102.168 193.055 102.168C191.25 102.168 189.947 101.621 189.145 100.527C188.361 99.4154 187.969 97.793 187.969 95.6602V77H329V74H187.969V67.0859H186.137L185.18 74.0859L180.777 74.9336V76.5742H185.207V95.8242C185.207 97.8112 185.49 99.4518 186.055 100.746C186.62 102.022 187.458 102.979 188.57 103.617C189.682 104.237 191.077 104.547 192.754 104.547C193.702 104.547 194.568 104.465 195.352 104.301C196.135 104.155 196.819 103.982 197.402 103.781V101.484C196.837 101.685 196.181 101.849 195.434 101.977Z" fill="#F0F0F5"/>
</svg>
