<svg width="291" height="121" viewBox="0 0 291 121" fill="none" xmlns="http://www.w3.org/2000/svg">
<path d="M29.0986 0C43.2021 0 53.7663 2.70182 60.791 8.10547C67.8158 13.5091 71.3281 21.9118 71.3281 33.3135C71.3281 39.1494 70.3825 44.3369 68.4912 48.876C66.654 53.361 63.8711 57.1436 60.1426 60.2236C56.4141 63.3037 51.7399 65.6273 46.1201 67.1943C40.5544 68.7614 34.043 69.5449 26.5859 69.5449H8.34863V118.502H0V0H29.0986ZM28.207 7.37598H8.34863V62.1689H25.7754C33.4486 62.1689 40.041 61.3044 45.5527 59.5752C51.0645 57.792 55.3063 54.82 58.2783 50.6592C61.2503 46.4984 62.7363 40.8245 62.7363 33.6377C62.7363 24.5055 59.9264 17.859 54.3066 13.6982C48.6868 9.4834 39.987 7.37598 28.207 7.37598ZM156.487 74.3271C156.487 81.1357 155.65 87.3499 153.975 92.9697C152.3 98.5355 149.814 103.345 146.518 107.397C143.221 111.45 139.115 114.584 134.197 116.8C129.334 119.015 123.66 120.123 117.176 120.123C111.016 120.123 105.531 119.042 100.722 116.881C95.9125 114.665 91.8328 111.531 88.4825 107.479C85.1863 103.426 82.6736 98.6165 80.9445 93.0508C79.2153 87.431 78.3507 81.1898 78.3507 74.3271C78.3507 64.8708 79.9178 56.7383 83.0519 49.9297C86.24 43.0671 90.7791 37.8255 96.6691 34.2051C102.613 30.5306 109.719 28.6934 117.986 28.6934C126.524 28.6934 133.63 30.6387 139.304 34.5293C145.032 38.3659 149.328 43.7155 152.192 50.5781C155.055 57.4408 156.487 65.3571 156.487 74.3271ZM86.7804 74.3271C86.7804 82.0544 87.8881 88.8089 90.1036 94.5908C92.3191 100.373 95.6694 104.885 100.154 108.127C104.693 111.369 110.421 112.99 117.338 112.99C124.417 112.99 130.226 111.369 134.765 108.127C139.304 104.885 142.654 100.346 144.816 94.5098C146.977 88.6738 148.058 81.9463 148.058 74.3271C148.058 66.9242 147.031 60.3317 144.978 54.5498C142.924 48.7679 139.682 44.2288 135.251 40.9326C130.82 37.5824 125.038 35.9072 117.905 35.9072C107.692 35.9072 99.9383 39.3115 94.6427 46.1201C89.4012 52.9287 86.7804 62.3311 86.7804 74.3271ZM219.221 28.8555C221.544 28.8555 223.733 28.9906 225.786 29.2607C227.839 29.5309 229.758 29.9092 231.541 30.3955L230.244 37.9336C228.461 37.4473 226.651 37.096 224.813 36.8799C222.976 36.6097 221.004 36.4746 218.896 36.4746C214.735 36.4746 211.007 37.2581 207.711 38.8252C204.469 40.3923 201.713 42.6348 199.443 45.5527C197.174 48.4707 195.444 51.9831 194.256 56.0898C193.067 60.1966 192.472 64.7897 192.472 69.8691V118.502H184.205V30.3955H191.257L192.067 47.0117H192.554C193.904 43.6074 195.796 40.5544 198.227 37.8525C200.713 35.0967 203.712 32.9082 207.224 31.2871C210.737 29.666 214.735 28.8555 219.221 28.8555ZM277.616 113.071C280.155 113.071 282.506 112.882 284.667 112.504C286.883 112.126 288.828 111.639 290.503 111.045V117.854C288.774 118.448 286.748 118.961 284.424 119.394C282.101 119.88 279.534 120.123 276.724 120.123C271.753 120.123 267.619 119.204 264.323 117.367C261.026 115.476 258.541 112.639 256.866 108.856C255.19 105.02 254.353 100.157 254.353 94.2666V37.2041H241.222V32.3408L254.272 29.8281L257.109 9.07812H262.539V30.3955H290.017V37.2041H262.539V93.7803C262.539 100.103 263.701 104.912 266.025 108.208C268.402 111.45 272.266 113.071 277.616 113.071Z" fill="#F0F0F5"/>
</svg>
