<svg width="745" height="166" viewBox="0 0 745 166" fill="none" xmlns="http://www.w3.org/2000/svg">
<path fill-rule="evenodd" clip-rule="evenodd" d="M4.375 0.46875V69H42.7656V61.875H12.3438V0.46875H4.375ZM91.1106 19.5938C87.9856 17.6562 84.2356 16.6875 79.8606 16.6875C75.2669 16.6875 71.2669 17.7812 67.8606 19.9688C64.4856 22.1562 61.8606 25.2812 59.9856 29.3438C58.1419 33.375 57.22 38.1562 57.22 43.6875C57.22 49.3438 58.2356 54.125 60.2669 58.0312C62.2981 61.9375 65.1419 64.9062 68.7981 66.9375C72.4856 68.9375 76.7981 69.9375 81.7356 69.9375C85.2044 69.9375 88.2044 69.6719 90.7356 69.1406C93.2981 68.6094 95.8763 67.7656 98.47 66.6094V59.7656C95.7825 60.9219 93.1888 61.7969 90.6888 62.3906C88.1888 62.9844 85.3138 63.2812 82.0638 63.2812C76.7825 63.2812 72.6888 61.7031 69.7825 58.5469C66.8763 55.3906 65.3763 50.7969 65.2825 44.7656H100.767V39.9375C100.767 35.2812 99.9388 31.2188 98.2825 27.75C96.6263 24.25 94.2356 21.5312 91.1106 19.5938ZM69.8294 27.1406C72.2981 24.4219 75.6106 23.0625 79.7669 23.0625C82.7044 23.0625 85.1106 23.7188 86.9856 25.0312C88.8606 26.3125 90.2513 28.125 91.1575 30.4688C92.095 32.7812 92.5794 35.4688 92.6106 38.5312H65.4231C65.8919 33.6562 67.3606 29.8594 69.8294 27.1406ZM141.237 63.2344C139.893 63.4531 138.581 63.5625 137.299 63.5625C134.831 63.5625 132.846 62.7656 131.346 61.1719C129.878 59.5781 129.143 57.1719 129.143 53.9531V23.7188H144.19V17.625H129.143V5.71875H124.456L121.362 16.875L114.003 19.9219V23.7188H121.315V54.1875C121.315 58.2188 121.971 61.375 123.284 63.6562C124.628 65.9375 126.409 67.5625 128.628 68.5312C130.846 69.4688 133.315 69.9375 136.034 69.9375C137.565 69.9375 139.128 69.7969 140.721 69.5156C142.346 69.2344 143.612 68.8906 144.518 68.4844V62.4375C143.674 62.75 142.581 63.0156 141.237 63.2344ZM168.488 1.5L167.785 0.46875H159.582C159.332 2.15625 159.019 3.98438 158.644 5.95312C158.301 7.92188 157.91 9.95312 157.473 12.0469C157.035 14.1406 156.566 16.2031 156.066 18.2344C155.598 20.2656 155.129 22.1719 154.66 23.9531H160.379C161.41 21.6719 162.441 19.2344 163.473 16.6406C164.504 14.0469 165.457 11.4531 166.332 8.85938C167.207 6.23438 167.926 3.78125 168.488 1.5ZM215.427 63.2344C217.083 60.9844 217.911 58.2188 217.911 54.9375C217.911 52.125 217.271 49.8281 215.989 48.0469C214.739 46.2344 212.943 44.7031 210.599 43.4531C208.255 42.1719 205.474 40.9375 202.255 39.75C199.036 38.5312 196.443 37.4688 194.474 36.5625C192.505 35.6562 191.068 34.6875 190.161 33.6562C189.286 32.625 188.849 31.3125 188.849 29.7188C188.849 27.6562 189.802 26.0312 191.708 24.8438C193.646 23.6562 196.411 23.0625 200.005 23.0625C202.505 23.0625 204.958 23.375 207.364 24C209.771 24.625 212.036 25.3906 214.161 26.2969L216.786 20.0625C214.443 19.0312 211.911 18.2188 209.193 17.625C206.505 17 203.614 16.6875 200.521 16.6875C194.802 16.6875 190.177 17.8594 186.646 20.2031C183.146 22.5156 181.396 25.8438 181.396 30.1875C181.396 33.0312 182.036 35.3438 183.318 37.125C184.63 38.9062 186.474 40.4219 188.849 41.6719C191.255 42.8906 194.099 44.125 197.38 45.375C200.693 46.5938 203.286 47.7188 205.161 48.75C207.036 49.75 208.364 50.7969 209.146 51.8906C209.958 52.9531 210.364 54.1875 210.364 55.5938C210.364 58.0625 209.364 60.0156 207.364 61.4531C205.364 62.8906 202.146 63.6094 197.708 63.6094C194.677 63.6094 191.708 63.1875 188.802 62.3438C185.896 61.5 183.396 60.5625 181.302 59.5312V66.7031C183.271 67.7344 185.568 68.5312 188.193 69.0938C190.818 69.6562 193.927 69.9375 197.521 69.9375C201.739 69.9375 205.364 69.375 208.396 68.25C211.458 67.125 213.802 65.4531 215.427 63.2344ZM11.5469 163.078C15.0781 164.984 19.1562 165.938 23.7812 165.938C26.6875 165.938 29.1875 165.703 31.2812 165.234C33.4062 164.766 35.3281 164.094 37.0469 163.219V156.281C35.2656 157.062 33.2812 157.75 31.0938 158.344C28.9062 158.906 26.4531 159.188 23.7344 159.188C20.3281 159.188 17.4844 158.422 15.2031 156.891C12.9531 155.328 11.25 153.078 10.0938 150.141C8.96875 147.203 8.40625 143.656 8.40625 139.5C8.40625 135.156 8.98438 131.5 10.1406 128.531C11.3281 125.562 13.0938 123.312 15.4375 121.781C17.8125 120.25 20.7812 119.484 24.3438 119.484C26.125 119.484 28.0312 119.734 30.0625 120.234C32.125 120.734 33.9375 121.297 35.5 121.922L37.8438 115.406C36.3125 114.625 34.3438 113.984 31.9375 113.484C29.5625 112.953 27.0938 112.688 24.5312 112.688C19.875 112.688 15.7188 113.641 12.0625 115.547C8.40625 117.453 5.53125 120.391 3.4375 124.359C1.375 128.297 0.34375 133.375 0.34375 139.594C0.34375 145.531 1.32812 150.453 3.29688 154.359C5.26562 158.266 8.01562 161.172 11.5469 163.078ZM98.6106 150.516C99.7044 147.203 100.251 143.438 100.251 139.219C100.251 133.625 99.2669 128.859 97.2981 124.922C95.3606 120.953 92.6263 117.922 89.095 115.828C85.595 113.734 81.5013 112.688 76.8138 112.688C71.9075 112.688 67.6731 113.734 64.1106 115.828C60.5794 117.891 57.8606 120.906 55.9544 124.875C54.0481 128.812 53.095 133.594 53.095 139.219C53.095 143.438 53.6575 147.203 54.7825 150.516C55.9388 153.828 57.5481 156.625 59.6106 158.906C61.7044 161.188 64.1731 162.938 67.0169 164.156C69.8919 165.344 73.0481 165.938 76.4856 165.938C80.1731 165.938 83.47 165.344 86.3763 164.156C89.3138 162.938 91.8138 161.188 93.8763 158.906C95.9388 156.625 97.5169 153.828 98.6106 150.516ZM62.7981 149.953C61.7044 146.922 61.1575 143.344 61.1575 139.219C61.1575 132.969 62.3919 128.078 64.8606 124.547C67.3606 121.016 71.2825 119.25 76.6263 119.25C80.2513 119.25 83.2044 120.062 85.4856 121.688C87.7669 123.312 89.4544 125.625 90.5481 128.625C91.6419 131.594 92.1888 135.125 92.1888 139.219C92.1888 143.344 91.6419 146.922 90.5481 149.953C89.4544 152.984 87.7513 155.328 85.4388 156.984C83.1575 158.641 80.2356 159.469 76.6731 159.469C73.0794 159.469 70.1419 158.641 67.8606 156.984C65.5794 155.328 63.8919 152.984 62.7981 149.953ZM158.581 117.188C155.456 114.188 150.846 112.688 144.753 112.688C142.44 112.688 140.237 113.016 138.143 113.672C136.049 114.297 134.159 115.234 132.471 116.484C130.784 117.703 129.393 119.219 128.299 121.031H127.878L126.706 113.625H120.424V165H128.206V138.094C128.206 131.969 129.362 127.297 131.674 124.078C133.987 120.859 137.987 119.25 143.674 119.25C147.706 119.25 150.69 120.312 152.628 122.438C154.596 124.562 155.581 127.766 155.581 132.047V165H163.268V131.531C163.268 124.938 161.706 120.156 158.581 117.188ZM224.176 117.188C221.051 114.188 216.441 112.688 210.348 112.688C208.035 112.688 205.832 113.016 203.738 113.672C201.644 114.297 199.754 115.234 198.066 116.484C196.379 117.703 194.988 119.219 193.894 121.031H193.473L192.301 113.625H186.019V165H193.801V138.094C193.801 131.969 194.957 127.297 197.269 124.078C199.582 120.859 203.582 119.25 209.269 119.25C213.301 119.25 216.285 120.312 218.223 122.438C220.191 124.562 221.176 127.766 221.176 132.047V165H228.863V131.531C228.863 124.938 227.301 120.156 224.176 117.188ZM282.646 115.594C279.521 113.656 275.771 112.688 271.396 112.688C266.802 112.688 262.802 113.781 259.396 115.969C256.021 118.156 253.396 121.281 251.521 125.344C249.677 129.375 248.755 134.156 248.755 139.688C248.755 145.344 249.771 150.125 251.802 154.031C253.833 157.938 256.677 160.906 260.333 162.938C264.021 164.938 268.333 165.938 273.271 165.938C276.739 165.938 279.739 165.672 282.271 165.141C284.833 164.609 287.411 163.766 290.005 162.609V155.766C287.318 156.922 284.724 157.797 282.224 158.391C279.724 158.984 276.849 159.281 273.599 159.281C268.318 159.281 264.224 157.703 261.318 154.547C258.411 151.391 256.911 146.797 256.818 140.766H292.302V135.938C292.302 131.281 291.474 127.219 289.818 123.75C288.161 120.25 285.771 117.531 282.646 115.594ZM261.364 123.141C263.833 120.422 267.146 119.062 271.302 119.062C274.239 119.062 276.646 119.719 278.521 121.031C280.396 122.312 281.786 124.125 282.693 126.469C283.63 128.781 284.114 131.469 284.146 134.531H256.958C257.427 129.656 258.896 125.859 261.364 123.141ZM320.584 163.078C324.116 164.984 328.194 165.938 332.819 165.938C335.725 165.938 338.225 165.703 340.319 165.234C342.444 164.766 344.366 164.094 346.084 163.219V156.281C344.303 157.062 342.319 157.75 340.131 158.344C337.944 158.906 335.491 159.188 332.772 159.188C329.366 159.188 326.522 158.422 324.241 156.891C321.991 155.328 320.288 153.078 319.131 150.141C318.006 147.203 317.444 143.656 317.444 139.5C317.444 135.156 318.022 131.5 319.178 128.531C320.366 125.562 322.131 123.312 324.475 121.781C326.85 120.25 329.819 119.484 333.381 119.484C335.163 119.484 337.069 119.734 339.1 120.234C341.163 120.734 342.975 121.297 344.538 121.922L346.881 115.406C345.35 114.625 343.381 113.984 340.975 113.484C338.6 112.953 336.131 112.688 333.569 112.688C328.913 112.688 324.756 113.641 321.1 115.547C317.444 117.453 314.569 120.391 312.475 124.359C310.413 128.297 309.381 133.375 309.381 139.594C309.381 145.531 310.366 150.453 312.334 154.359C314.303 158.266 317.053 161.172 320.584 163.078ZM385.523 159.234C384.179 159.453 382.867 159.562 381.586 159.562C379.117 159.562 377.133 158.766 375.633 157.172C374.164 155.578 373.429 153.172 373.429 149.953V120H745V113H373.429V101.719H368.742L365.648 112.875L358.289 115.922V119.719H365.601V150.188C365.601 154.219 366.258 157.375 367.57 159.656C368.914 161.938 370.695 163.562 372.914 164.531C375.133 165.469 377.601 165.938 380.32 165.938C381.851 165.938 383.414 165.797 385.008 165.516C386.633 165.234 387.898 164.891 388.804 164.484V158.438C387.961 158.75 386.867 159.016 385.523 159.234Z" fill="#F0F0F5"/>
</svg>
