<svg width="305" height="129" viewBox="0 0 305 129" fill="none" xmlns="http://www.w3.org/2000/svg">
<path d="M304.85 82.8379C304.85 89.6465 304.012 95.8607 302.337 101.48C300.662 107.046 298.176 111.855 294.88 115.908C291.584 119.961 287.477 123.095 282.56 125.311C277.697 127.526 272.023 128.634 265.538 128.634C259.378 128.634 253.894 127.553 249.084 125.392C244.275 123.176 240.195 120.042 236.845 115.989C233.549 111.937 231.036 107.127 229.307 101.562C227.578 95.9417 226.713 89.7005 226.713 82.8379C226.713 73.3815 228.28 65.249 231.414 58.4404C234.603 51.5778 239.142 46.3363 245.032 42.7158C250.976 39.0413 258.081 37.2041 266.349 37.2041C274.887 37.2041 281.992 39.1494 287.666 43.04C293.394 46.8766 297.69 52.2262 300.554 59.0889C303.418 65.9515 304.85 73.8678 304.85 82.8379ZM235.143 82.8379C235.143 90.5651 236.251 97.3197 238.466 103.102C240.682 108.883 244.032 113.396 248.517 116.638C253.056 119.88 258.784 121.501 265.701 121.501C272.779 121.501 278.588 119.88 283.127 116.638C287.666 113.396 291.017 108.856 293.178 103.021C295.339 97.1846 296.42 90.457 296.42 82.8379C296.42 75.4349 295.394 68.8424 293.34 63.0605C291.287 57.2786 288.045 52.7396 283.614 49.4434C279.183 46.0931 273.401 44.418 266.268 44.418C256.055 44.418 248.301 47.8223 243.005 54.6309C237.764 61.4395 235.143 70.8418 235.143 82.8379Z" fill="#F0F0F5"/>
<path d="M202.316 38.9062V127.013H194.129V38.9062H202.316ZM198.344 6.32227C200.397 6.32227 201.91 6.94368 202.883 8.18652C203.856 9.37533 204.342 10.9964 204.342 13.0498C204.342 15.1032 203.856 16.7243 202.883 17.9131C201.91 19.1019 200.397 19.6963 198.344 19.6963C196.399 19.6963 194.94 19.1019 193.967 17.9131C192.994 16.7243 192.508 15.1032 192.508 13.0498C192.508 10.9964 192.994 9.37533 193.967 8.18652C194.94 6.94368 196.399 6.32227 198.344 6.32227Z" fill="#F0F0F5"/>
<path d="M156.568 127.013H148.301V0.891602H156.568V127.013Z" fill="#F0F0F5"/>
<path d="M123.903 82.8379C123.903 89.6465 123.066 95.8607 121.391 101.48C119.716 107.046 117.23 111.855 113.934 115.908C110.637 119.961 106.531 123.095 101.613 125.311C96.7501 127.526 91.0763 128.634 84.5919 128.634C78.4318 128.634 72.9471 127.553 68.1378 125.392C63.3286 123.176 59.2488 120.042 55.8986 115.989C52.6023 111.937 50.0896 107.127 48.3605 101.562C46.6313 95.9417 45.7667 89.7005 45.7667 82.8379C45.7667 73.3815 47.3338 65.249 50.4679 58.4404C53.656 51.5778 58.1951 46.3363 64.0851 42.7158C70.0291 39.0413 77.1349 37.2041 85.4025 37.2041C93.9402 37.2041 101.046 39.1494 106.72 43.04C112.448 46.8766 116.744 52.2262 119.608 59.0889C122.471 65.9515 123.903 73.8678 123.903 82.8379ZM54.1964 82.8379C54.1964 90.5651 55.3042 97.3197 57.5197 103.102C59.7351 108.883 63.0854 113.396 67.5704 116.638C72.1095 119.88 77.8374 121.501 84.754 121.501C91.8328 121.501 97.6417 119.88 102.181 116.638C106.72 113.396 110.07 108.856 112.232 103.021C114.393 97.1846 115.474 90.457 115.474 82.8379C115.474 75.4349 114.447 68.8424 112.394 63.0605C110.34 57.2786 107.098 52.7396 102.667 49.4434C98.2361 46.0931 92.4542 44.418 85.3214 44.418C75.1085 44.418 67.3543 47.8223 62.0587 54.6309C56.8172 61.4395 54.1964 70.8418 54.1964 82.8379Z" fill="#F0F0F5"/>
<path d="M45.3096 45.7148H24.5596V127.013H16.373V45.7148H0V40.8516L16.373 38.7441V29.0176C16.373 22.5332 17.2917 17.1566 19.1289 12.8877C21.0202 8.56478 23.8571 5.34961 27.6396 3.24219C31.4762 1.08073 36.3125 0 42.1484 0C45.1745 0 47.9033 0.243164 50.335 0.729492C52.7666 1.16178 55.0361 1.72917 57.1436 2.43164L55.2793 9.32129C53.388 8.67285 51.2806 8.13249 48.957 7.7002C46.6875 7.2679 44.445 7.05176 42.2295 7.05176C36.0153 7.05176 31.5033 8.78092 28.6934 12.2393C25.9375 15.6436 24.5596 21.2093 24.5596 28.9365V38.9062H45.3096V45.7148Z" fill="#F0F0F5"/>
</svg>
